<svg width="70" height="70" viewBox="0 0 70 70" fill="none" xmlns="http://www.w3.org/2000/svg">
<path d="M69.43 19.4141C69.2293 19.1292 68.9632 18.8966 68.6539 18.736C68.3446 18.5753 68.0013 18.4914 67.6527 18.4911H21.2274L17.7132 6.37239C16.3351 1.60036 13.0603 1.08521 11.7172 1.08521H2.34706C1.14605 1.08521 0.174805 2.05755 0.174805 3.25739C0.174805 4.45724 1.14715 5.42951 2.34699 5.42951H11.7161C12.0125 5.42951 12.917 5.42951 13.5339 7.56123L25.6232 51.9904C25.8857 52.9278 26.7399 53.5752 27.7143 53.5752H57.2434C58.16 53.5752 58.9781 53.001 59.2877 52.138L69.6958 21.3982C69.9353 20.7321 69.8358 19.9905 69.43 19.4141H69.43ZM55.7147 49.2321H29.3631L22.4484 22.8366H64.5643L55.7147 49.2321ZM51.4065 57.9777C48.3856 57.9777 45.9378 60.4255 45.9378 63.4465C45.9378 66.4674 48.3856 68.9152 51.4065 68.9152C54.4275 68.9152 56.8753 66.4674 56.8753 63.4465C56.8753 60.4255 54.4275 57.9777 51.4065 57.9777ZM31.719 57.9777C28.6981 57.9777 26.2503 60.4255 26.2503 63.4465C26.2503 66.4674 28.6981 68.9152 31.719 68.9152C34.74 68.9152 37.1878 66.4674 37.1878 63.4465C37.1878 60.4255 34.74 57.9777 31.719 57.9777Z" fill="#E5E80C"/>
</svg>
