<svg width="70" height="70" viewBox="0 0 70 70" fill="none" xmlns="http://www.w3.org/2000/svg">
<g clip-path="url(#clip0_109_289)">
<path d="M68.8334 67.6667H67.6668V54.8334V40.8334V26.8334C67.6668 26.189 67.1445 25.6667 66.5001 25.6667H63.0001V19.8334H64.1668C64.8111 19.8334 65.3334 19.3111 65.3334 18.6667V14.0001C65.3334 13.3558 64.8111 12.8335 64.1668 12.8335H50.1668C49.5224 12.8335 49.0001 13.3558 49.0001 14.0001V18.6667C49.0001 19.3111 49.5224 19.8334 50.1668 19.8334H51.3334V25.6667H47.8334C47.189 25.6667 46.6668 26.189 46.6668 26.8334V39.6667H40.8334V19.0051C40.8334 17.5301 39.6367 16.3335 38.1618 16.3335H29.5051C28.0301 16.3335 26.8335 17.5302 26.8335 19.0051V39.6667H21V19.0051C21 17.5301 19.8033 16.3335 18.3284 16.3335H9.67162C8.19656 16.3335 7 17.5302 7 19.0051V39.6667H3.5C2.85564 39.6667 2.33338 40.189 2.33338 40.8334V54.8334V67.6667H1.16662C0.522266 67.6667 0 68.189 0 68.8334C0 69.4777 0.522266 70.0001 1.16662 70.0001H3.5H66.5H68.8334C69.4777 70.0001 70 69.4779 70 68.8335C70 68.1891 69.4777 67.6667 68.8334 67.6667ZM51.3334 15.1667H63V17.5001H61.8334H52.5H51.3334V15.1667ZM53.6666 19.8335H60.6666V25.6669H53.6666V19.8335ZM49 28.0001H52.5H61.8334H65.3334V39.6667H49V28.0001ZM29.1666 19.0051C29.1666 18.8188 29.3187 18.6667 29.505 18.6667H38.1616C38.348 18.6667 38.5 18.8188 38.5 19.0051V39.6667H29.1666V19.0051ZM9.33338 19.0051C9.33338 18.8188 9.48541 18.6667 9.67176 18.6667H18.3284C18.5147 18.6667 18.6668 18.8188 18.6668 19.0051V39.6667H9.33338V19.0051ZM4.66662 42.0001H8.16662H19.8332H28H39.6666H47.8332H65.3332V53.6667H4.66662V42.0001ZM4.66662 67.6667V56.0001H65.3332V67.6667H4.66662Z" fill="#E5E80C"/>
<path d="M3.5 7H12.8334C14.114 7 15.1668 8.0526 15.1668 9.33338C15.1668 9.97773 15.689 10.5 16.3334 10.5C16.9777 10.5 17.5 9.9776 17.5 9.33338C17.5 6.76402 15.4026 4.66676 12.8334 4.66676H3.5C2.86098 4.66676 2.33338 4.13916 2.33338 3.50014C2.33338 2.86111 2.86098 2.33352 3.5 2.33352H8.16662C8.81098 2.33352 9.33324 1.81125 9.33324 1.16689C9.33324 0.522539 8.81098 0 8.16662 0H3.5C1.57227 0 0 1.57227 0 3.5C0 5.42773 1.57227 7 3.5 7Z" fill="#E5E80C"/>
<path d="M25.6669 7H35.0002C36.2809 7 37.3336 8.0526 37.3336 9.33338C37.3336 9.97773 37.8559 10.5 38.5002 10.5C39.1446 10.5 39.6669 9.97773 39.6669 9.33338C39.6669 6.76402 37.5695 4.66676 35.0002 4.66676H25.6669C25.0278 4.66676 24.5002 4.13916 24.5002 3.50014C24.5002 2.86111 25.0278 2.33352 25.6669 2.33352H30.3335C30.9778 2.33352 31.5001 1.81125 31.5001 1.16689C31.5001 0.522539 30.978 0 30.3336 0H25.667C23.7394 0 22.167 1.57227 22.167 3.5C22.1669 5.42773 23.7393 7 25.6669 7Z" fill="#E5E80C"/>
<path d="M51.3335 7H57.1669C58.4475 7 59.5003 8.0526 59.5003 9.33338C59.5003 9.97773 60.0225 10.5 60.6669 10.5C61.3112 10.5 61.8335 9.97773 61.8335 9.33338C61.8335 6.76402 59.7362 4.66676 57.1669 4.66676H51.3335C50.6945 4.66676 50.1669 4.13916 50.1669 3.50014C50.1669 2.86111 50.6945 2.33352 51.3335 2.33352H56.0001C56.6445 2.33352 57.1667 1.81125 57.1667 1.16689C57.1667 0.522539 56.6445 0 56.0001 0H51.3335C49.4059 0 47.8335 1.57227 47.8335 3.5C47.8335 5.42773 49.4058 7 51.3335 7Z" fill="#E5E80C"/>
<path d="M9.33361 44.3335C8.68926 44.3335 8.16699 44.8559 8.16699 45.5001V50.1667C8.16699 50.8111 8.68926 51.3334 9.33361 51.3334C9.97797 51.3334 10.5002 50.8111 10.5002 50.1667V45.5001C10.5002 44.8558 9.97783 44.3335 9.33361 44.3335Z" fill="#E5E80C"/>
<path d="M14.0001 44.3335C13.3558 44.3335 12.8335 44.8559 12.8335 45.5001V50.1667C12.8335 50.8111 13.3558 51.3334 14.0001 51.3334C14.6445 51.3334 15.1667 50.8111 15.1667 50.1667V45.5001C15.1667 44.8558 14.6445 44.3335 14.0001 44.3335Z" fill="#E5E80C"/>
<path d="M18.6666 44.3335C18.0223 44.3335 17.5 44.8559 17.5 45.5001V50.1667C17.5 50.8111 18.0223 51.3334 18.6666 51.3334C19.311 51.3334 19.8332 50.8111 19.8332 50.1667V45.5001C19.8334 44.8558 19.311 44.3335 18.6666 44.3335Z" fill="#E5E80C"/>
<path d="M23.3336 44.3335C22.6893 44.3335 22.167 44.8559 22.167 45.5001V50.1667C22.167 50.8111 22.6893 51.3334 23.3336 51.3334C23.978 51.3334 24.5002 50.8111 24.5002 50.1667V45.5001C24.5002 44.8558 23.978 44.3335 23.3336 44.3335Z" fill="#E5E80C"/>
<path d="M28.0001 44.3335C27.3558 44.3335 26.8335 44.8559 26.8335 45.5001V50.1667C26.8335 50.8111 27.3558 51.3334 28.0001 51.3334C28.6445 51.3334 29.1667 50.8111 29.1667 50.1667V45.5001C29.1667 44.8558 28.6445 44.3335 28.0001 44.3335Z" fill="#E5E80C"/>
<path d="M32.6666 44.3335C32.0223 44.3335 31.5 44.8559 31.5 45.5001V50.1667C31.5 50.8111 32.0223 51.3334 32.6666 51.3334C33.311 51.3334 33.8332 50.8111 33.8332 50.1667V45.5001C33.8334 44.8558 33.311 44.3335 32.6666 44.3335Z" fill="#E5E80C"/>
<path d="M37.3336 44.3335C36.6893 44.3335 36.167 44.8559 36.167 45.5001V50.1667C36.167 50.8111 36.6894 51.3334 37.3336 51.3334C37.978 51.3334 38.5002 50.8111 38.5002 50.1667V45.5001C38.5002 44.8558 37.9778 44.3335 37.3336 44.3335Z" fill="#E5E80C"/>
<path d="M42.0001 44.3335C41.3558 44.3335 40.8335 44.8559 40.8335 45.5001V50.1667C40.8335 50.8111 41.3558 51.3334 42.0001 51.3334C42.6445 51.3334 43.1667 50.8111 43.1667 50.1667V45.5001C43.1667 44.8558 42.6445 44.3335 42.0001 44.3335Z" fill="#E5E80C"/>
<path d="M46.6666 44.3335C46.0223 44.3335 45.5 44.8559 45.5 45.5001V50.1667C45.5 50.8111 46.0224 51.3334 46.6666 51.3334C47.3108 51.3334 47.8332 50.8111 47.8332 50.1667V45.5001C47.8334 44.8558 47.311 44.3335 46.6666 44.3335Z" fill="#E5E80C"/>
<path d="M51.3336 44.3335C50.6893 44.3335 50.167 44.8559 50.167 45.5001V50.1667C50.167 50.8111 50.6893 51.3334 51.3336 51.3334C51.978 51.3334 52.5002 50.8111 52.5002 50.1667V45.5001C52.5002 44.8558 51.978 44.3335 51.3336 44.3335Z" fill="#E5E80C"/>
<path d="M56.0001 44.3335C55.3558 44.3335 54.8335 44.8559 54.8335 45.5001V50.1667C54.8335 50.8111 55.3558 51.3334 56.0001 51.3334C56.6445 51.3334 57.1667 50.8111 57.1667 50.1667V45.5001C57.1667 44.8558 56.6445 44.3335 56.0001 44.3335Z" fill="#E5E80C"/>
<path d="M60.6666 44.3335C60.0223 44.3335 59.5 44.8559 59.5 45.5001V50.1667C59.5 50.8111 60.0223 51.3334 60.6666 51.3334C61.311 51.3334 61.8332 50.8111 61.8332 50.1667V45.5001C61.8334 44.8558 61.311 44.3335 60.6666 44.3335Z" fill="#E5E80C"/>
<path d="M9.33361 58.3335C8.68926 58.3335 8.16699 58.8558 8.16699 59.5001V64.1667C8.16699 64.8111 8.68926 65.3334 9.33361 65.3334C9.97797 65.3334 10.5002 64.8111 10.5002 64.1667V59.5001C10.5002 58.8558 9.97783 58.3335 9.33361 58.3335Z" fill="#E5E80C"/>
<path d="M14.0001 58.3335C13.3558 58.3335 12.8335 58.8558 12.8335 59.5001V64.1667C12.8335 64.8111 13.3558 65.3334 14.0001 65.3334C14.6445 65.3334 15.1667 64.8111 15.1667 64.1667V59.5001C15.1667 58.8558 14.6445 58.3335 14.0001 58.3335Z" fill="#E5E80C"/>
<path d="M18.6666 58.3335C18.0223 58.3335 17.5 58.8558 17.5 59.5001V64.1667C17.5 64.8111 18.0223 65.3334 18.6666 65.3334C19.311 65.3334 19.8332 64.8111 19.8332 64.1667V59.5001C19.8334 58.8558 19.311 58.3335 18.6666 58.3335Z" fill="#E5E80C"/>
<path d="M23.3336 58.3335C22.6893 58.3335 22.167 58.8558 22.167 59.5001V64.1667C22.167 64.8111 22.6893 65.3334 23.3336 65.3334C23.978 65.3334 24.5002 64.8111 24.5002 64.1667V59.5001C24.5002 58.8558 23.978 58.3335 23.3336 58.3335Z" fill="#E5E80C"/>
<path d="M28.0001 58.3335C27.3558 58.3335 26.8335 58.8558 26.8335 59.5001V64.1667C26.8335 64.8111 27.3558 65.3334 28.0001 65.3334C28.6445 65.3334 29.1667 64.8111 29.1667 64.1667V59.5001C29.1667 58.8558 28.6445 58.3335 28.0001 58.3335Z" fill="#E5E80C"/>
<path d="M32.6666 58.3335C32.0223 58.3335 31.5 58.8558 31.5 59.5001V64.1667C31.5 64.8111 32.0223 65.3334 32.6666 65.3334C33.311 65.3334 33.8332 64.8111 33.8332 64.1667V59.5001C33.8334 58.8558 33.311 58.3335 32.6666 58.3335Z" fill="#E5E80C"/>
<path d="M37.3336 58.3335C36.6893 58.3335 36.167 58.8558 36.167 59.5001V64.1667C36.167 64.8111 36.6894 65.3334 37.3336 65.3334C37.978 65.3334 38.5002 64.8111 38.5002 64.1667V59.5001C38.5002 58.8558 37.9778 58.3335 37.3336 58.3335Z" fill="#E5E80C"/>
<path d="M42.0001 58.3335C41.3558 58.3335 40.8335 58.8558 40.8335 59.5001V64.1667C40.8335 64.8111 41.3558 65.3334 42.0001 65.3334C42.6445 65.3334 43.1667 64.8111 43.1667 64.1667V59.5001C43.1667 58.8558 42.6445 58.3335 42.0001 58.3335Z" fill="#E5E80C"/>
<path d="M46.6666 58.3335C46.0223 58.3335 45.5 58.8558 45.5 59.5001V64.1667C45.5 64.8111 46.0224 65.3334 46.6666 65.3334C47.3108 65.3334 47.8332 64.8111 47.8332 64.1667V59.5001C47.8334 58.8558 47.311 58.3335 46.6666 58.3335Z" fill="#E5E80C"/>
<path d="M51.3336 58.3335C50.6893 58.3335 50.167 58.8558 50.167 59.5001V64.1667C50.167 64.8111 50.6893 65.3334 51.3336 65.3334C51.978 65.3334 52.5002 64.8111 52.5002 64.1667V59.5001C52.5002 58.8558 51.978 58.3335 51.3336 58.3335Z" fill="#E5E80C"/>
<path d="M56.0001 58.3335C55.3558 58.3335 54.8335 58.8558 54.8335 59.5001V64.1667C54.8335 64.8111 55.3558 65.3334 56.0001 65.3334C56.6445 65.3334 57.1667 64.8111 57.1667 64.1667V59.5001C57.1667 58.8558 56.6445 58.3335 56.0001 58.3335Z" fill="#E5E80C"/>
<path d="M60.6666 58.3335C60.0223 58.3335 59.5 58.8558 59.5 59.5001V64.1667C59.5 64.8111 60.0223 65.3334 60.6666 65.3334C61.311 65.3334 61.8332 64.8111 61.8332 64.1667V59.5001C61.8334 58.8558 61.311 58.3335 60.6666 58.3335Z" fill="#E5E80C"/>
</g>
<defs>
<clipPath id="clip0_109_289">
<rect width="70" height="70" fill="white"/>
</clipPath>
</defs>
</svg>
