<svg width="68" height="70" viewBox="0 0 68 70" fill="none" xmlns="http://www.w3.org/2000/svg">
<path fill-rule="evenodd" clip-rule="evenodd" d="M34.0001 22.7908C27.0818 22.7908 21.4734 28.2571 21.4734 35.0001C21.4734 41.7432 27.0818 47.2094 34.0001 47.2094C40.9186 47.2094 46.5269 41.7432 46.5269 35.0001C46.5269 28.2571 40.9186 22.7908 34.0001 22.7908ZM26.4841 35.0001C26.4841 30.9544 29.8493 27.6745 34.0001 27.6745C38.151 27.6745 41.5162 30.9544 41.5162 35.0001C41.5162 39.0457 38.151 42.3257 34.0001 42.3257C29.8493 42.3257 26.4841 39.0457 26.4841 35.0001Z" fill="#E5E80C"/>
<path fill-rule="evenodd" clip-rule="evenodd" d="M33.9155 1.383e-06C32.431 -3.11751e-05 31.1913 -3.13288e-05 30.1738 0.0676245C29.1146 0.13808 28.1141 0.289932 27.144 0.681541C24.8932 1.59027 23.1048 3.33327 22.1725 5.52714C21.6871 6.66928 21.5557 7.87295 21.5054 9.18127C21.4651 10.233 20.9205 11.1105 20.1168 11.5627C19.3132 12.015 18.2612 12.0359 17.3066 11.5441C16.1189 10.9323 14.9837 10.4414 13.7261 10.28C11.3107 9.97005 8.86774 10.6081 6.93485 12.0536C6.10187 12.6766 5.46665 13.4452 4.87445 14.3041C4.30554 15.1292 3.68585 16.1754 2.9435 17.4286L2.85915 17.571C2.11676 18.8242 1.49704 19.8704 1.04838 20.7631C0.581355 21.6924 0.216008 22.6129 0.0789485 23.6275C-0.239064 25.9818 0.415534 28.3628 1.89867 30.2468C2.67071 31.2272 3.67436 31.9402 4.81158 32.6366C5.72614 33.1966 6.23365 34.0952 6.23358 35C6.23355 35.9045 5.72604 36.8031 4.81158 37.3631C3.67422 38.0595 2.67048 38.7725 1.89837 39.7532C0.415199 41.637 -0.239364 44.018 0.0786144 46.3722C0.215674 47.3867 0.58102 48.3075 1.04805 49.2367C1.49671 50.1294 2.11643 51.1755 2.85878 52.4287L2.94316 52.5713C3.68551 53.8245 4.3052 54.8706 4.87412 55.6956C5.46631 56.5545 6.10154 57.3232 6.93451 57.946C8.86741 59.3916 11.3103 60.0297 13.7258 59.7198C14.9833 59.5583 16.1185 59.0676 17.306 58.4559C18.2608 57.9639 19.3129 57.9847 20.1167 58.4373C20.9205 58.8895 21.4651 59.767 21.5054 60.8189C21.5557 62.1271 21.6871 63.3308 22.1725 64.4729C23.1048 66.6667 24.8932 68.4099 27.144 69.3186C28.1141 69.7102 29.1146 69.862 30.1738 69.9323C31.1913 70 32.431 70 33.9155 70H34.0842C35.569 70 36.8083 70 37.8261 69.9323C38.8854 69.862 39.8859 69.7102 40.8559 69.3186C43.1068 68.4099 44.8952 66.6667 45.8276 64.4729C46.3129 63.3308 46.4442 62.1271 46.4943 60.8186C46.5347 59.767 47.0792 58.8895 47.8829 58.437C48.6867 57.9847 49.7389 57.9639 50.6936 58.4555C51.8811 59.0673 53.0162 59.5583 54.2739 59.7194C56.6894 60.0294 59.1323 59.3916 61.0651 57.946C61.8982 57.3228 62.5332 56.5545 63.1255 55.6956C63.6944 54.8706 64.314 53.8245 65.0563 52.5713L65.1408 52.4287C65.883 51.1755 66.503 50.1291 66.9517 49.2364C67.4186 48.3072 67.7838 47.3867 67.9211 46.3722C68.2391 44.0176 67.5843 41.6367 66.1012 39.7528C65.3292 38.7722 64.3254 38.0595 63.1883 37.3631C62.2737 36.8031 61.7662 35.9045 61.7662 34.9997C61.7662 34.0952 62.2737 33.1969 63.1879 32.6369C64.3257 31.9405 65.3295 31.2278 66.1015 30.2468C67.5847 28.363 68.2394 25.982 67.9214 23.6277C67.7841 22.6131 67.419 21.6926 66.952 20.7633C66.5034 19.8707 65.8837 18.8246 65.1411 17.5715L65.0569 17.429C64.3144 16.1757 63.6947 15.1294 63.1258 14.3043C62.5336 13.4454 61.8985 12.6768 61.0654 12.0538C59.1326 10.6083 56.6897 9.97028 54.2739 10.2802C53.0166 10.4416 51.8815 10.9324 50.6939 11.5442C49.7392 12.0361 48.687 12.0151 47.8833 11.5628C47.0796 11.1106 46.5347 10.2329 46.4943 9.1811C46.4442 7.87282 46.3129 6.66921 45.8276 5.52714C44.8952 3.33327 43.1068 1.59027 40.8559 0.681541C39.8859 0.289932 38.8854 0.13808 37.8261 0.0676245C36.8083 -3.13288e-05 35.569 -3.11751e-05 34.0842 1.383e-06H33.9155ZM29.0614 5.19351C29.3193 5.08946 29.7108 4.99351 30.5149 4.94002C31.3416 4.88506 32.4093 4.88372 34 4.88372C35.5907 4.88372 36.6583 4.88506 37.4847 4.94002C38.2891 4.99351 38.6806 5.08946 38.9382 5.19351C39.9614 5.60658 40.7744 6.39885 41.198 7.39607C41.332 7.71062 41.4425 8.20097 41.4873 9.36362C41.5862 11.9435 42.9524 14.4275 45.3779 15.7923C47.8031 17.1571 50.6936 17.0683 53.0353 15.8619C54.0905 15.3183 54.5819 15.1666 54.928 15.1222C56.026 14.9813 57.1364 15.2713 58.0149 15.9284C58.2364 16.0939 58.5173 16.3764 58.9669 17.0284C59.4293 17.6987 59.9641 18.5992 60.7594 19.9419C61.5548 21.2846 62.0876 22.1864 62.452 22.9116C62.8065 23.6171 62.917 23.9956 62.9534 24.2652C63.0981 25.3353 62.8005 26.4176 62.1264 27.2739C61.9136 27.544 61.5334 27.8828 60.5223 28.5017C58.2798 29.8753 56.7559 32.2703 56.7556 34.9997C56.7556 37.7293 58.2795 40.1246 60.5223 41.4983C61.5331 42.1172 61.9132 42.4558 62.126 42.726C62.8001 43.5823 63.0978 44.6646 62.9531 45.7347C62.9167 46.0043 62.8061 46.3826 62.4517 47.0882C62.0873 47.8133 61.5545 48.7151 60.7591 50.0578C59.9637 51.4005 59.4289 52.3011 58.9666 52.9714C58.517 53.6233 58.236 53.9059 58.0146 54.0713C57.136 54.7286 56.0257 55.0184 54.9277 54.8777C54.5816 54.8331 54.0902 54.6814 53.0349 54.138C50.6933 52.9314 47.8028 52.8428 45.3773 54.2077C42.9524 55.5725 41.5862 58.0564 41.4873 60.6363C41.4425 61.7989 41.332 62.2892 41.198 62.6041C40.7744 63.601 39.9614 64.3935 38.9382 64.8066C38.6806 64.9105 38.2891 65.0066 37.4847 65.06C36.6583 65.115 35.5907 65.1163 34 65.1163C32.4093 65.1163 31.3416 65.115 30.5149 65.06C29.7108 65.0066 29.3193 64.9105 29.0614 64.8066C28.0386 64.3935 27.2256 63.601 26.8018 62.6041C26.6681 62.2892 26.5573 61.7989 26.5126 60.6363C26.4137 58.0567 25.0474 55.5725 22.622 54.2077C20.1967 52.8428 17.3064 52.9317 14.9646 54.138C13.9093 54.6817 13.4182 54.8334 13.0718 54.8777C11.9738 55.0187 10.8634 54.7286 9.98486 54.0716C9.76352 53.9062 9.48249 53.6236 9.03289 52.9714C8.57074 52.3014 8.03576 51.4008 7.2404 50.0581C6.445 48.7154 5.9124 47.8136 5.54792 47.0885C5.19336 46.383 5.08286 46.0043 5.04645 45.7347C4.90191 44.6646 5.19944 43.5823 5.87362 42.726C6.08627 42.4561 6.46658 42.1172 7.47737 41.4983C9.72009 40.125 11.2441 37.7297 11.2443 35.0003C11.2444 32.2703 9.72033 29.875 7.47741 28.5014C6.46685 27.8824 6.08657 27.5438 5.87392 27.2737C5.19978 26.4173 4.90224 25.3351 5.04679 24.2649C5.0832 23.9954 5.1937 23.6169 5.54826 22.9114C5.91273 22.1861 6.44534 21.2844 7.2407 19.9416C8.0361 18.5989 8.57104 17.6985 9.03323 17.0282C9.48282 16.3762 9.76385 16.0937 9.98516 15.9282C10.8638 15.2711 11.9742 14.9811 13.0721 15.122C13.4185 15.1664 13.9096 15.3181 14.9651 15.8618C17.3068 17.0681 20.1969 17.1569 22.6222 15.7922C25.0475 14.4274 26.4137 11.9435 26.5126 9.36379C26.5573 8.20104 26.6681 7.71065 26.8018 7.39607C27.2256 6.39885 28.0386 5.60658 29.0614 5.19351Z" fill="#E5E80C"/>
</svg>
