<svg width="70" height="70" viewBox="0 0 70 70" fill="none" xmlns="http://www.w3.org/2000/svg">
<g clip-path="url(#clip0_109_232)">
<path d="M27.0144 45.0731H43.7549C45.1537 45.0731 46.2876 43.939 46.2876 42.5403C46.2876 41.1416 45.1537 40.0076 43.7549 40.0076H27.0144C25.6156 40.0076 24.4817 41.1416 24.4817 42.5403C24.4817 43.939 25.6156 45.0731 27.0144 45.0731Z" fill="#E5E80C"/>
<path d="M43.7549 45.1322H27.0144C25.5853 45.1322 24.4226 43.9695 24.4226 42.5403C24.4226 41.1111 25.5853 39.9485 27.0144 39.9485H43.7549C45.1841 39.9485 46.3468 41.1111 46.3468 42.5403C46.3468 43.9695 45.1841 45.1322 43.7549 45.1322ZM27.0144 40.0667C25.6505 40.0667 24.5408 41.1764 24.5408 42.5403C24.5408 43.9043 25.6505 45.014 27.0144 45.014H43.7549C45.1188 45.014 46.2285 43.9043 46.2285 42.5403C46.2285 41.1764 45.1188 40.0667 43.7549 40.0667H27.0144Z" fill="#E5E80C"/>
<path d="M11.7762 42.9059C12.2708 43.4005 12.919 43.6477 13.5671 43.6477C14.2153 43.6477 14.8635 43.4004 15.358 42.9059L22.0622 36.2019C22.5598 35.7041 22.8068 35.0504 22.8036 34.3981C22.8069 33.7457 22.5599 33.0922 22.0622 32.5944L15.358 25.8903C14.3689 24.9011 12.7653 24.9012 11.7762 25.8903C10.7872 26.8794 10.7872 28.4829 11.7762 29.472L16.7025 34.3982L11.7762 39.3243C10.7872 40.3132 10.7872 41.9169 11.7762 42.9059Z" fill="#E5E80C"/>
<path d="M13.5672 43.7068C12.875 43.7068 12.2241 43.4372 11.7344 42.9477C11.2449 42.4581 10.9753 41.8073 10.9753 41.115C10.9753 40.4228 11.2449 39.7719 11.7344 39.2824L16.6188 34.398L11.7344 29.5136C10.724 28.5031 10.724 26.8588 11.7344 25.8482C12.224 25.3586 12.8749 25.0891 13.5672 25.0891C14.2595 25.0891 14.9102 25.3587 15.3999 25.8482L22.1041 32.5523C22.5969 33.0451 22.8665 33.7008 22.8628 34.3981C22.8663 35.0952 22.5968 35.7506 22.1041 36.2434L15.3999 42.9475C14.9105 43.4371 14.2596 43.7068 13.5672 43.7068ZM13.5673 25.2074C12.9066 25.2074 12.2854 25.4646 11.8182 25.9318C10.8538 26.8963 10.8538 28.4654 11.8182 29.4299L16.7861 34.3979L11.8182 39.3659C11.351 39.833 11.0937 40.4541 11.0937 41.1149C11.0937 41.7756 11.351 42.3968 11.8182 42.864C12.2854 43.3312 12.9066 43.5884 13.5672 43.5884C14.228 43.5884 14.8491 43.3312 15.3163 42.864L22.0205 36.1599C22.4908 35.6895 22.7479 35.0638 22.7447 34.3983C22.7481 33.732 22.491 33.1064 22.0205 32.636L15.3163 25.9319C14.8491 25.4646 14.228 25.2074 13.5673 25.2074Z" fill="#E5E80C"/>
<path d="M0.059082 62.059C0.059082 65.8496 3.14301 68.9335 6.93355 68.9335H63.0663C66.8569 68.9335 69.9408 65.8496 69.9408 62.059V7.94087C69.9408 4.15034 66.8569 1.06641 63.0663 1.06641H6.93355C3.14301 1.06652 0.059082 4.15034 0.059082 7.94087V62.059ZM64.8754 62.059C64.8754 63.058 64.0654 63.8681 63.0663 63.8681H6.93355C5.93442 63.8681 5.12448 63.058 5.12448 62.059V20.7491H64.8753L64.8754 62.059ZM5.12448 7.94087C5.12448 6.94174 5.93442 6.1318 6.93355 6.1318H63.0663C64.0654 6.1318 64.8754 6.94174 64.8754 7.94087V15.6837H5.12448V7.94087Z" fill="#E5E80C"/>
<path d="M63.0663 68.9925H6.93358C3.11042 68.9925 0 65.8821 0 62.0589V7.94079C0 4.11762 3.11042 1.00732 6.93358 1.00732H63.0663C66.8896 1.00732 70 4.11774 70 7.94091V62.0591C70 65.8821 66.8896 68.9925 63.0663 68.9925ZM6.93358 1.12556C3.17557 1.12556 0.11824 4.18277 0.11824 7.94079V62.0589C0.11824 65.8168 3.17557 68.8743 6.93358 68.8743H63.0663C66.8243 68.8743 69.8818 65.817 69.8818 62.0589V7.94079C69.8818 4.18277 66.8244 1.12545 63.0663 1.12545H6.93358V1.12556ZM63.0663 63.9271H6.93358C5.90348 63.9271 5.06539 63.089 5.06539 62.0589V20.6899H64.9345V62.0589C64.9346 63.089 64.0965 63.9271 63.0663 63.9271ZM5.18363 20.8081V62.0589C5.18363 63.0239 5.96863 63.8089 6.93358 63.8089H63.0663C64.0312 63.8089 64.8164 63.0239 64.8164 62.0589V20.8081H5.18363ZM64.9346 15.7428H5.06539V7.94079C5.06539 6.91069 5.90348 6.0726 6.93358 6.0726H63.0663C64.0965 6.0726 64.9346 6.91069 64.9346 7.94079V15.7428ZM5.18363 15.6246H64.8162V7.94079C64.8162 6.97584 64.0311 6.19084 63.0662 6.19084H6.93358C5.96863 6.19084 5.18363 6.97584 5.18363 7.94079V15.6246Z" fill="#E5E80C"/>
</g>
<defs>
<clipPath id="clip0_109_232">
<rect width="70" height="70" fill="white"/>
</clipPath>
</defs>
</svg>
