<svg width="94" height="74" viewBox="0 0 94 74" fill="none" xmlns="http://www.w3.org/2000/svg">
<path d="M2 18C2 12.3994 2 9.5992 3.08995 7.4601C4.04865 5.57845 5.57845 4.04865 7.4601 3.08995C9.5992 2 12.3995 2 18 2H35.3726C37.8185 2 39.0415 2 40.1925 2.2763C41.2125 2.52125 42.188 2.9253 43.083 3.4736C44.092 4.092 44.957 4.95675 46.6865 6.6863L47.3135 7.3137C49.043 9.04325 49.908 9.908 50.917 10.5264C51.812 11.0747 52.7875 11.4787 53.8075 11.7237C54.9585 12 56.1815 12 58.6275 12H76C81.6005 12 84.401 12 86.54 13.0899C88.4215 14.0486 89.9515 15.5785 90.91 17.4601C92 19.5992 92 22.3995 92 28V56C92 61.6005 92 64.401 90.91 66.54C89.9515 68.4215 88.4215 69.9515 86.54 70.91C84.401 72 81.6005 72 76 72H18C12.3994 72 9.5992 72 7.4601 70.91C5.57845 69.9515 4.04865 68.4215 3.08995 66.54C2 64.401 2 61.6005 2 56V18Z" stroke="#E5E80C" stroke-width="4" stroke-linecap="round" stroke-linejoin="round"/>
</svg>
