<svg width="79" height="72" viewBox="0 0 79 72" fill="none" xmlns="http://www.w3.org/2000/svg">
<path d="M76.5756 2.08324C75.9643 1.55184 75.2202 1.19896 74.4238 1.06286C73.6274 0.926756 72.8092 1.01263 72.0578 1.31117L3.81462 28.2863C2.92252 28.6389 2.16788 29.2727 1.66364 30.0928C1.1594 30.913 0.932664 31.8753 1.01736 32.8359C1.10206 33.7965 1.49364 34.7037 2.13351 35.4217C2.77337 36.1397 3.62711 36.6299 4.56698 36.819L23.0902 40.5467V63.5514C23.0809 64.4365 23.3375 65.3037 23.8262 66.0396C24.3149 66.7756 25.0131 67.3459 25.8293 67.6759C26.3761 67.9063 26.9628 68.0257 27.5556 68.0272C28.1348 68.0254 28.708 67.9079 29.2418 67.6814C29.7756 67.4549 30.2593 67.1241 30.665 66.708L41.2389 56.0689L56.8407 69.8831C57.6446 70.6015 58.6822 70.9988 59.7575 71C60.2249 70.9995 60.6894 70.9253 61.134 70.7802C61.8673 70.5462 62.5268 70.1228 63.0467 69.5523C63.5666 68.9818 63.9288 68.2841 64.097 67.5288L78.0053 6.46385C78.1869 5.67191 78.1497 4.84508 77.8977 4.07291C77.6456 3.30074 77.1884 2.61268 76.5756 2.08324ZM3.96394 32.5728C3.92715 32.2513 3.99918 31.9268 4.16841 31.6516C4.33763 31.3764 4.59415 31.1667 4.89649 31.0563L67.452 6.32934L24.2262 37.7401L5.14708 33.9008C4.83015 33.8456 4.54097 33.6845 4.32628 33.4436C4.11158 33.2026 3.98392 32.8958 3.96394 32.5728ZM28.5731 64.6036C28.3663 64.8118 28.1028 64.9535 27.8159 65.0109C27.529 65.0683 27.2316 65.0389 26.9614 64.9263C26.6911 64.8136 26.4601 64.6229 26.2976 64.3782C26.1351 64.1335 26.0483 63.8458 26.0483 63.5514V42.6187L39.0139 54.0988L28.5731 64.6036ZM75.1219 5.79897L61.2136 66.8639C61.1563 67.1152 61.0352 67.3471 60.862 67.5371C60.6889 67.7271 60.4696 67.8686 60.2258 67.9477C59.9819 68.0269 59.7219 68.0409 59.471 67.9885C59.2202 67.936 58.9871 67.8189 58.7948 67.6487L26.9377 39.4415L74.8829 4.60128C75.009 4.77032 75.096 4.96562 75.1373 5.17286C75.1787 5.38011 75.1734 5.59404 75.1219 5.79897Z" fill="#E5E80C" stroke="#E5E80C"/>
</svg>
