<svg width="35" height="35" viewBox="0 0 35 35" fill="none" xmlns="http://www.w3.org/2000/svg">
<path fill-rule="evenodd" clip-rule="evenodd" d="M12.7285 14.3189C12.7285 11.6837 14.8648 9.54739 17.5001 9.54739C20.1353 9.54739 22.2716 11.6837 22.2716 14.3189C22.2716 16.9542 20.1353 19.0905 17.5001 19.0905C14.8648 19.0905 12.7285 16.9542 12.7285 14.3189Z" fill="#458485"/>
<path fill-rule="evenodd" clip-rule="evenodd" d="M12.2761 21.3988C13.5683 20.857 15.292 20.681 17.5002 20.681C19.7038 20.681 21.4249 20.8563 22.716 21.3953C24.1018 21.9737 24.9524 22.9565 25.4059 24.3859C25.5743 24.9171 25.1759 25.4526 24.6251 25.4526H10.3704C9.82182 25.4526 9.42575 24.9195 9.59285 24.3912C10.0449 22.9619 10.8925 21.9787 12.2761 21.3988Z" fill="#458485"/>
<circle cx="17.5" cy="17.5" r="17" stroke="#458485"/>
</svg>
