<svg width="129" height="129" viewBox="0 0 129 129" fill="none" xmlns="http://www.w3.org/2000/svg">
<path d="M79.6979 126.42C59.2716 126.42 49.8304 117.479 37.7568 103.837C34.3544 99.9952 23.9094 88.6795 23.9094 88.6795L21.8898 86.4461C16.9837 81.0483 14.6738 78.3111 14.6738 76.5333C14.6738 74.3524 16.1815 72.4134 18.9147 71.0629C23.7038 68.7006 31.5285 68.4587 36.3257 72.1473C39.9336 74.9208 47.1173 82.6729 50.9551 86.9138V28.2188C50.9551 22.6234 54.8573 18.7171 60.4446 18.705C60.4446 18.705 60.4527 18.705 60.4608 18.705C60.4648 18.705 60.4688 18.705 60.4729 18.705C66.0763 18.7171 69.9826 22.6234 69.9826 28.2188V59.0175H96.3953C106.619 59.0175 114.326 66.1851 114.326 75.6908V91.8561C114.326 109.807 110.13 126.42 79.6979 126.42ZM26.0621 86.7364C26.0702 86.7445 36.5232 98.0682 39.9296 101.922C51.4791 114.967 60.485 123.518 79.6979 123.518C106.03 123.518 111.424 110.859 111.424 91.8561V75.6908C111.424 67.8379 104.962 61.916 96.3953 61.916H68.5313C67.7291 61.916 67.0801 61.267 67.0801 60.4647V28.2188C67.0801 24.2681 64.4195 21.6115 60.4608 21.6075C56.5142 21.6115 53.8576 24.2681 53.8576 28.2188V90.7031C53.8576 91.3038 53.4867 91.844 52.9223 92.0617C52.362 92.2794 51.721 92.1221 51.3219 91.6626C51.201 91.5296 39.2967 78.0853 34.56 74.4451C30.8311 71.587 24.1231 71.7321 20.2007 73.6711C18.5358 74.4895 17.5804 75.5376 17.5804 76.5373C17.8101 77.6419 21.8656 82.1005 24.0425 84.4991L26.0621 86.7364ZM43.3562 47.2825C37.922 42.4692 34.8059 35.5194 34.8059 28.2188C34.8059 14.0812 46.307 2.58002 60.4446 2.58002C74.5822 2.58002 86.0834 14.0812 86.0834 28.2188C86.0834 35.5194 82.9672 42.4652 77.5331 47.2825L75.6021 45.1097C80.4155 40.8446 83.1769 34.6889 83.1769 28.2188C83.1769 15.6816 72.9818 5.48252 60.4406 5.48252C47.9034 5.48252 37.7044 15.6816 37.7044 28.2188C37.7044 34.6889 40.4658 40.8487 45.2791 45.1097L43.3562 47.2825Z" fill="#E5E80C"/>
</svg>
