<svg width="129" height="129" viewBox="0 0 129 129" fill="none" xmlns="http://www.w3.org/2000/svg">
<path d="M23.1343 106.639C14.9529 98.3946 9.38133 87.8901 7.12409 76.4543C4.86685 65.0185 6.02534 53.165 10.4531 42.3927C14.8808 31.6204 22.3789 22.4132 31.9992 15.9354C41.6195 9.45751 52.9299 5.99998 64.5001 6" stroke="#E5E80C" stroke-width="3" stroke-linecap="round" stroke-linejoin="round"/>
<path d="M105.866 23.2668C114.047 31.5116 119.619 42.016 121.876 53.4518C124.133 64.8876 122.975 76.7412 118.547 87.5135C114.119 98.2857 106.621 107.493 97.0009 113.971C87.3806 120.449 76.0702 123.906 64.5 123.906" stroke="#E5E80C" stroke-width="3" stroke-linecap="round" stroke-linejoin="round"/>
<path d="M96.9119 29.1033C102.151 29.1033 106.398 24.8231 106.398 19.5432C106.398 14.2633 102.151 9.98309 96.9119 9.98309C91.6726 9.98309 87.4253 14.2633 87.4253 19.5432C87.4253 24.8231 91.6726 29.1033 96.9119 29.1033Z" stroke="#E5E80C" stroke-width="3" stroke-linecap="round" stroke-linejoin="round"/>
<path d="M32.0872 119.923C37.3265 119.923 41.5738 115.643 41.5738 110.363C41.5738 105.083 37.3265 100.803 32.0872 100.803C26.8479 100.803 22.6006 105.083 22.6006 110.363C22.6006 115.643 26.8479 119.923 32.0872 119.923Z" stroke="#E5E80C" stroke-width="3" stroke-linecap="round" stroke-linejoin="round"/>
<path d="M52.1157 53.7632L61.6032 72.8846L93.2247 69.6996L74.2518 31.4581L52.1157 53.7632Z" stroke="#E5E80C" stroke-width="3" stroke-linecap="round" stroke-linejoin="round"/>
<path d="M52.1152 53.7631L39.4666 60.1364C35.6656 62.0516 35.9866 69.055 37.8865 72.8845C39.7864 76.714 45.1537 81.173 48.9541 79.2578L61.6027 72.8845" stroke="#E5E80C" stroke-width="3" stroke-linecap="round" stroke-linejoin="round"/>
<path d="M58.8083 74.5132L66.7135 90.4457L60.3902 93.6331L52.4849 77.7006" stroke="#E5E80C" stroke-width="3" stroke-linecap="round" stroke-linejoin="round"/>
</svg>
