<svg width="40" height="40" viewBox="0 0 40 40" fill="none" xmlns="http://www.w3.org/2000/svg">
<g clip-path="url(#clip0_155_410)">
<path d="M20 40C31.0457 40 40 31.0457 40 20C40 8.95431 31.0457 0 20 0C8.95431 0 0 8.95431 0 20C0 31.0457 8.95431 40 20 40Z" fill="#B8BAC0"/>
<path d="M20.0003 30.0059C17.6716 30.0059 15.5589 29.0067 14 27.3916C13.9989 28.3595 13.9637 29.7565 13.707 30.7759C13.8754 30.8788 14.006 31.0477 14.0315 31.2579C14.3642 33.9649 16.9299 36.0059 20.0003 36.0059C23.0699 36.0059 25.6357 33.9646 25.969 31.2579C25.9949 31.0474 26.1227 30.8788 26.2936 30.7762C26.0369 29.7568 26.0017 28.3596 26.0005 27.3916C24.4417 29.0067 22.3289 30.0059 20.0003 30.0059Z" fill="white"/>
<path d="M25.8703 27.5146C24.3245 29.0544 22.2668 30.0059 20.0003 30.0059C17.6716 30.0059 15.5589 29.0067 14 27.3916C13.9989 28.3595 13.9637 29.7565 13.707 30.7759C13.8754 30.8788 14.006 31.0477 14.0315 31.2579C14.1786 32.4544 14.763 33.5199 15.6334 34.3374C19.6474 33.7722 24.2034 29.8086 25.8703 27.5146Z" fill="#D7DBE0"/>
<path d="M25.9997 13.3391H14.6663C12.8284 13.3391 11.333 14.8345 11.333 16.6724V20.6724C11.333 25.8189 15.221 30.0058 19.9997 30.0058C24.7783 30.0058 28.6663 25.8189 28.6663 20.6724V16.0058C28.6663 14.5354 27.4703 13.3391 25.9997 13.3391Z" fill="white"/>
<path d="M24.6663 6.00586H15.9997C14.7458 6.00586 13.6918 6.87569 13.4078 8.04328C11.1129 8.33503 9.33301 10.2999 9.33301 12.6725V16.0059C9.33301 17.7239 10.0623 19.3268 11.333 20.4659V16.6725C11.333 14.8346 12.8284 13.3392 14.6663 13.3392H25.9997C27.4703 13.3392 28.6663 14.5354 28.6663 16.0059V20.4651C29.9373 19.3262 30.6663 17.7235 30.6663 16.0059V12.0059C30.6663 8.69761 27.9749 6.00586 24.6663 6.00586Z" fill="#5C546A"/>
<path d="M5.13574 33.3786C8.79658 37.4432 14.099 40 19.9997 40C25.9005 40 31.2029 37.4432 34.8637 33.3786C34.2254 32.5156 33.3252 31.8145 32.1677 31.4904C32.1411 31.4829 32.1143 31.477 32.087 31.4731L26.7654 30.6746C26.7328 30.6697 26.6632 30.6671 26.63 30.6671C26.2934 30.6671 26.0096 30.9181 25.9685 31.2524C25.6352 33.959 23.0694 36.0005 19.9997 36.0005C16.9294 36.0005 14.3637 33.9595 14.031 31.2524C13.9893 30.9083 13.6794 30.6495 13.3526 30.6674C13.3135 30.6651 13.2751 30.6684 13.2341 30.6745L7.91249 31.473C7.88516 31.477 7.85849 31.4828 7.83174 31.4903C6.67424 31.8145 5.77408 32.5156 5.13574 33.3786Z" fill="#5C546A"/>
</g>
<defs>
<clipPath id="clip0_155_410">
<rect width="40" height="40" fill="white"/>
</clipPath>
</defs>
</svg>
