<svg width="24" height="24" viewBox="0 0 24 24" fill="none" xmlns="http://www.w3.org/2000/svg">
<g clip-path="url(#clip0_156_255)">
<path d="M23.158 4.08363C23.158 4.99145 21.718 5.7845 19.4224 6.33754C17.0243 6.8663 14.5735 7.11838 12.118 7.08884C9.66256 7.11746 7.21188 6.86539 4.81367 6.33754C2.58062 5.79493 1.14062 4.99145 1.14062 4.08363C1.14062 2.4245 6.07628 1.08884 12.1911 1.08884C18.3058 1.08884 23.158 2.4245 23.158 4.08363Z" stroke="white" stroke-opacity="0.8" stroke-width="2" stroke-miterlimit="10"/>
<path d="M23.158 4.08363V12.0558C23.158 12.9532 21.718 13.7567 19.4224 14.2993C17.0251 14.8332 14.5737 15.0854 12.118 15.0506C9.66233 15.0845 7.21104 14.8324 4.81367 14.2993C2.58062 13.7984 1.14062 12.9949 1.14062 12.0558V4.08363C1.14062 4.99145 2.58063 5.79493 4.88671 6.33754C7.28493 6.86539 9.73561 7.11746 12.1911 7.08884C14.6466 7.11838 17.0973 6.86629 19.4954 6.33754C21.718 5.79493 23.158 4.99145 23.158 4.08363Z" stroke="white" stroke-opacity="0.8" stroke-width="2" stroke-miterlimit="10"/>
<path d="M23.1584 12.0558V20.0593C23.1584 20.9567 21.7184 21.7601 19.4228 22.3132C17.0247 22.8419 14.5739 23.094 12.1184 23.0645C9.66298 23.0931 7.2123 22.841 4.81408 22.3132C2.52887 21.7601 1.08887 20.9567 1.08887 20.0593V12.0558C1.08887 12.9532 2.52887 13.7567 4.81408 14.2993C7.21145 14.8324 9.66274 15.0845 12.1184 15.0506C14.5742 15.0854 17.0255 14.8332 19.4228 14.2993C21.7184 13.7984 23.1584 12.9949 23.1584 12.0558Z" stroke="white" stroke-opacity="0.8" stroke-width="2" stroke-miterlimit="10"/>
<path d="M11.1475 11.0958H13.1509" stroke="white" stroke-opacity="0.8" stroke-width="2" stroke-miterlimit="10"/>
<path d="M15.1445 11.0958H17.148" stroke="white" stroke-opacity="0.8" stroke-width="2" stroke-miterlimit="10"/>
<path d="M7.14062 11.0958H9.1441" stroke="white" stroke-opacity="0.8" stroke-width="2" stroke-miterlimit="10"/>
<path d="M11.1475 19.0993H13.1509" stroke="white" stroke-opacity="0.8" stroke-width="2" stroke-miterlimit="10"/>
<path d="M15.1445 19.0993H17.148" stroke="white" stroke-opacity="0.8" stroke-width="2" stroke-miterlimit="10"/>
<path d="M7.14062 19.0993H9.1441" stroke="white" stroke-opacity="0.8" stroke-width="2" stroke-miterlimit="10"/>
</g>
<defs>
<clipPath id="clip0_156_255">
<rect width="24" height="24" fill="white"/>
</clipPath>
</defs>
</svg>
