<svg width="65" height="65" viewBox="0 0 65 65" fill="none" xmlns="http://www.w3.org/2000/svg">
<circle cx="32.5" cy="32.5" r="32.5" fill="#606057"/>
<path fill-rule="evenodd" clip-rule="evenodd" d="M32.4994 48.9141C23.4342 48.9141 16.0853 41.5652 16.0853 32.5C16.0853 23.4347 23.4342 16.0859 32.4994 16.0859C41.5647 16.0859 48.9136 23.4347 48.9136 32.5C48.9136 35.1258 48.297 37.6074 47.2008 39.8084C46.9095 40.3932 46.8125 41.0618 46.9814 41.6929L47.9591 45.3469C48.3835 46.933 46.9324 48.384 45.3462 47.9597L41.6924 46.982C41.0612 46.8131 40.3926 46.9101 39.8078 47.2013C37.6069 48.2976 35.1252 48.9141 32.4994 48.9141ZM39.0651 34.5518C39.745 34.5518 40.2962 35.103 40.2962 35.7828C40.2962 36.4627 39.745 37.0139 39.0651 37.0139H30.0373C29.3574 37.0139 28.8063 36.4627 28.8063 35.7828C28.8063 35.103 29.3574 34.5518 30.0373 34.5518H39.0651ZM40.2962 30.0379C40.2962 29.358 39.745 28.8068 39.0651 28.8068H25.9338C25.2539 28.8068 24.7027 29.358 24.7027 30.0379C24.7027 30.7178 25.2539 31.2689 25.9338 31.2689H39.0651C39.745 31.2689 40.2962 30.7178 40.2962 30.0379Z" fill="white"/>
</svg>
