<svg width="66" height="66" viewBox="0 0 66 66" fill="none" xmlns="http://www.w3.org/2000/svg">
<circle cx="33" cy="33" r="33" fill="#606057"/>
<path fill-rule="evenodd" clip-rule="evenodd" d="M32.9998 49.6667C23.7952 49.6667 16.3332 42.2047 16.3332 33C16.3332 23.7953 23.7952 16.3333 32.9998 16.3333C42.2046 16.3333 49.6665 23.7953 49.6665 33C49.6665 35.6662 49.0405 38.186 47.9274 40.4208C47.6316 41.0147 47.5332 41.6935 47.7046 42.3343L48.6973 46.0445C49.1283 47.655 47.6548 49.1283 46.0443 48.6975L42.3342 47.7048C41.6933 47.5333 41.0145 47.6318 40.4206 47.9275C38.1859 49.0407 35.666 49.6667 32.9998 49.6667ZM39.6665 35.0833C40.3569 35.0833 40.9165 35.643 40.9165 36.3333C40.9165 37.0237 40.3569 37.5833 39.6665 37.5833H30.4998C29.8095 37.5833 29.2498 37.0237 29.2498 36.3333C29.2498 35.643 29.8095 35.0833 30.4998 35.0833H39.6665ZM40.9165 30.5C40.9165 29.8097 40.3569 29.25 39.6665 29.25H26.3332C25.6428 29.25 25.0832 29.8097 25.0832 30.5C25.0832 31.1903 25.6428 31.75 26.3332 31.75H39.6665C40.3569 31.75 40.9165 31.1903 40.9165 30.5Z" fill="white"/>
</svg>
