<svg width="9" height="8" viewBox="0 0 9 8" fill="none" xmlns="http://www.w3.org/2000/svg">
<path d="M4.02841 8C3.23168 8 2.45281 7.76542 1.79035 7.32587C1.12788 6.88636 0.611548 6.26164 0.306646 5.53076C0.00174503 4.79982 -0.0780309 3.99556 0.0774075 3.21964C0.232841 2.44372 0.616512 1.73099 1.17989 1.17157C1.74328 0.612164 2.46107 0.231199 3.24251 0.0768616C4.02393 -0.0774806 4.83391 0.00173272 5.57004 0.304484C6.30612 0.607235 6.93526 1.11992 7.3779 1.77772C7.82057 2.43552 8.05682 3.20889 8.05682 4C8.05682 5.06089 7.6324 6.07827 6.87694 6.82844C6.12144 7.57858 5.09683 8 4.02841 8ZM4.02841 0.666666C3.36444 0.666666 2.71542 0.862164 2.16336 1.22843C1.6113 1.59471 1.18102 2.1153 0.926941 2.72439C0.672856 3.33347 0.606378 4.00369 0.735905 4.65031C0.865436 5.29689 1.18516 5.89084 1.65465 6.35702C2.12413 6.8232 2.7223 7.14067 3.37348 7.26929C4.02469 7.39791 4.69968 7.33191 5.31307 7.0796C5.92651 6.82729 6.45078 6.40004 6.81965 5.85191C7.18852 5.30373 7.38542 4.65929 7.38542 4C7.38542 3.11596 7.03172 2.2681 6.40217 1.64298C5.77262 1.01786 4.91873 0.666666 4.02841 0.666666Z" fill="white" fill-opacity="0.8"/>
</svg>
