<svg width="30" height="30" viewBox="0 0 30 30" fill="none" xmlns="http://www.w3.org/2000/svg">
<circle cx="15" cy="15" r="14.5" fill="#293445" stroke="#292B2E"/>
<path d="M10.191 18.8867C9.93633 19.1414 9.93633 19.5543 10.191 19.809C10.4457 20.0637 10.8586 20.0637 11.1133 19.809L10.191 18.8867ZM15.4611 15.4611C15.7158 15.2064 15.7158 14.7936 15.4611 14.5389C15.2064 14.2842 14.7936 14.2842 14.5389 14.5389L15.4611 15.4611ZM14.5389 14.5389C14.2842 14.7936 14.2842 15.2064 14.5389 15.4611C14.7936 15.7158 15.2064 15.7158 15.4611 15.4611L14.5389 14.5389ZM19.809 11.1133C20.0637 10.8586 20.0637 10.4457 19.809 10.191C19.5543 9.93633 19.1414 9.93633 18.8867 10.191L19.809 11.1133ZM15.4611 14.5389C15.2064 14.2842 14.7936 14.2842 14.5389 14.5389C14.2842 14.7936 14.2842 15.2064 14.5389 15.4611L15.4611 14.5389ZM18.8867 19.809C19.1414 20.0637 19.5543 20.0637 19.809 19.809C20.0637 19.5543 20.0637 19.1414 19.809 18.8867L18.8867 19.809ZM14.5389 15.4611C14.7936 15.7158 15.2064 15.7158 15.4611 15.4611C15.7158 15.2064 15.7158 14.7936 15.4611 14.5389L14.5389 15.4611ZM11.1133 10.191C10.8586 9.93633 10.4457 9.93633 10.191 10.191C9.93633 10.4457 9.93633 10.8586 10.191 11.1133L11.1133 10.191ZM11.1133 19.809L15.4611 15.4611L14.5389 14.5389L10.191 18.8867L11.1133 19.809ZM15.4611 15.4611L19.809 11.1133L18.8867 10.191L14.5389 14.5389L15.4611 15.4611ZM14.5389 15.4611L18.8867 19.809L19.809 18.8867L15.4611 14.5389L14.5389 15.4611ZM15.4611 14.5389L11.1133 10.191L10.191 11.1133L14.5389 15.4611L15.4611 14.5389Z" fill="white" fill-opacity="0.8"/>
</svg>
