<svg width="32" height="32" viewBox="0 0 32 32" fill="none" xmlns="http://www.w3.org/2000/svg">
<path d="M16.5 2.35303C8.64298 2.35303 2.24998 7.79103 2.24998 14.477C2.29398 17.311 3.39998 19.879 5.18798 21.807L5.18198 21.8C4.58498 24.405 3.27498 26.644 1.46998 28.369L1.46498 28.374C1.33298 28.509 1.25098 28.694 1.25098 28.899C1.25098 29.313 1.58698 29.649 2.00098 29.65C2.05498 29.65 2.10798 29.644 2.15898 29.633L2.15398 29.634C5.62398 29.075 8.69998 27.694 11.273 25.698L11.228 25.732C12.797 26.284 14.606 26.603 16.49 26.603C16.494 26.603 16.499 26.603 16.503 26.603C24.36 26.603 30.752 21.164 30.752 14.478C30.752 7.79203 24.359 2.35403 16.502 2.35403L16.5 2.35303ZM16.5 25.102C16.484 25.102 16.465 25.102 16.446 25.102C14.614 25.102 12.86 24.77 11.241 24.162L11.343 24.196C11.285 24.178 11.217 24.167 11.148 24.166C11.128 24.164 11.111 24.157 11.091 24.157C10.906 24.157 10.737 24.225 10.606 24.337L10.607 24.336C10.597 24.344 10.583 24.34 10.573 24.349C8.77598 25.868 6.60298 27.002 4.21598 27.592L4.10798 27.615C5.39798 25.982 6.32298 24.002 6.72698 21.838L6.73998 21.755C6.73998 21.749 6.73998 21.741 6.73998 21.734C6.73998 21.713 6.73898 21.691 6.73698 21.67V21.673C6.73698 21.668 6.73698 21.663 6.73698 21.658C6.73698 21.639 6.73598 21.621 6.73498 21.603V21.605C6.73098 21.424 6.66198 21.26 6.55098 21.135L6.55198 21.136L6.54098 21.109C4.83698 19.412 3.77398 17.071 3.74998 14.483V14.478C3.74998 8.62003 9.46998 3.85403 16.5 3.85403C23.53 3.85403 29.25 8.62003 29.25 14.478C29.25 20.337 23.531 25.103 16.5 25.103V25.102ZM17.019 12.143C15.575 12.143 14.404 13.314 14.404 14.759C14.404 16.204 15.575 17.375 17.02 17.375C18.465 17.375 19.636 16.204 19.636 14.759C19.634 13.315 18.464 12.144 17.02 12.143H17.019ZM17.019 15.874C16.403 15.874 15.904 15.374 15.904 14.758C15.904 14.142 16.404 13.642 17.02 13.642C17.636 13.642 18.135 14.141 18.136 14.757C18.135 15.373 17.636 15.872 17.02 15.873L17.019 15.874ZM10.176 12.143C8.73198 12.143 7.56098 13.314 7.56098 14.759C7.56098 16.204 8.73198 17.375 10.177 17.375C11.622 17.375 12.793 16.204 12.793 14.759C12.791 13.315 11.621 12.144 10.177 12.143H10.176ZM10.176 15.874C9.55998 15.874 9.06098 15.374 9.06098 14.758C9.06098 14.142 9.56098 13.642 10.177 13.642C10.793 13.642 11.292 14.141 11.293 14.757C11.292 15.373 10.793 15.872 10.177 15.873L10.176 15.874ZM23.861 12.143C22.416 12.143 21.245 13.314 21.245 14.759C21.245 16.204 22.416 17.375 23.861 17.375C25.306 17.375 26.477 16.204 26.477 14.759C26.475 13.315 25.304 12.145 23.861 12.143ZM23.861 15.874C23.245 15.874 22.745 15.374 22.745 14.758C22.745 14.142 23.245 13.642 23.861 13.642C24.477 13.642 24.976 14.141 24.977 14.757C24.976 15.373 24.477 15.871 23.862 15.873L23.861 15.874Z" fill="white" fill-opacity="0.8"/>
</svg>
