<svg width="22" height="22" viewBox="0 0 22 22" fill="none" xmlns="http://www.w3.org/2000/svg">
<path d="M1.38203 18.7734C0.872656 19.2828 0.872656 20.1086 1.38203 20.618C1.89141 21.1273 2.71729 21.1273 3.22666 20.618L1.38203 18.7734ZM11.9223 11.9223C12.4317 11.4129 12.4317 10.5871 11.9223 10.0778C11.4129 9.56836 10.5871 9.56836 10.0778 10.0778L11.9223 11.9223ZM10.0778 10.0778C9.56836 10.5871 9.56836 11.4129 10.0778 11.9223C10.5871 12.4317 11.4129 12.4317 11.9223 11.9223L10.0778 10.0778ZM20.618 3.22666C21.1273 2.71729 21.1273 1.89141 20.618 1.38203C20.1086 0.872656 19.2828 0.872656 18.7734 1.38203L20.618 3.22666ZM11.9223 10.0778C11.4129 9.56836 10.5871 9.56836 10.0778 10.0778C9.56836 10.5871 9.56836 11.4129 10.0778 11.9223L11.9223 10.0778ZM18.7734 20.618C19.2828 21.1273 20.1086 21.1273 20.618 20.618C21.1273 20.1086 21.1273 19.2828 20.618 18.7734L18.7734 20.618ZM10.0778 11.9223C10.5871 12.4317 11.4129 12.4317 11.9223 11.9223C12.4317 11.4129 12.4317 10.5871 11.9223 10.0778L10.0778 11.9223ZM3.22666 1.38203C2.71729 0.872656 1.89141 0.872656 1.38203 1.38203C0.872656 1.89141 0.872656 2.71729 1.38203 3.22666L3.22666 1.38203ZM3.22666 20.618L11.9223 11.9223L10.0778 10.0778L1.38203 18.7734L3.22666 20.618ZM11.9223 11.9223L20.618 3.22666L18.7734 1.38203L10.0778 10.0778L11.9223 11.9223ZM10.0778 11.9223L18.7734 20.618L20.618 18.7734L11.9223 10.0778L10.0778 11.9223ZM11.9223 10.0778L3.22666 1.38203L1.38203 3.22666L10.0778 11.9223L11.9223 10.0778Z" fill="white"/>
<path d="M1.38203 18.7734C0.872656 19.2828 0.872656 20.1086 1.38203 20.618C1.89141 21.1273 2.71729 21.1273 3.22666 20.618M1.38203 18.7734L3.22666 20.618M1.38203 18.7734L10.0778 10.0778M3.22666 20.618L11.9223 11.9223M11.9223 11.9223C12.4317 11.4129 12.4317 10.5871 11.9223 10.0778M11.9223 11.9223L10.0778 10.0778M11.9223 11.9223C11.4129 12.4317 10.5871 12.4317 10.0778 11.9223M11.9223 11.9223L20.618 3.22666M11.9223 10.0778C11.4129 9.56836 10.5871 9.56836 10.0778 10.0778M11.9223 10.0778L10.0778 11.9223M11.9223 10.0778L20.618 18.7734M11.9223 10.0778L3.22666 1.38203M10.0778 10.0778C9.56836 10.5871 9.56836 11.4129 10.0778 11.9223M10.0778 10.0778L18.7734 1.38203M10.0778 11.9223L18.7734 20.618M10.0778 11.9223L1.38203 3.22666M20.618 3.22666C21.1273 2.71729 21.1273 1.89141 20.618 1.38203C20.1086 0.872656 19.2828 0.872656 18.7734 1.38203M20.618 3.22666L18.7734 1.38203M18.7734 20.618C19.2828 21.1273 20.1086 21.1273 20.618 20.618C21.1273 20.1086 21.1273 19.2828 20.618 18.7734M18.7734 20.618L20.618 18.7734M3.22666 1.38203C2.71729 0.872656 1.89141 0.872656 1.38203 1.38203C0.872656 1.89141 0.872656 2.71729 1.38203 3.22666M3.22666 1.38203L1.38203 3.22666" stroke="white"/>
</svg>
