<svg width="24" height="15" viewBox="0 0 24 15" fill="none" xmlns="http://www.w3.org/2000/svg">
<g clip-path="url(#clip0_109_142)">
<path d="M22.2026 -0.0596619H1.79742C0.804703 -0.0596619 0 0.714091 0 1.66863V13.3314C0 14.2859 0.804703 15.0597 1.79742 15.0597H22.2026C23.1952 15.0597 24 14.286 24 13.3314V1.66863C24 0.714091 23.1953 -0.0596619 22.2026 -0.0596619Z" fill="#41479B"/>
<path d="M23.9751 1.3829C23.8335 0.564436 23.094 -0.0597229 22.2026 -0.0597229H21.7349L14.069 4.76962V-0.0596779H9.93103V4.76966L2.26509 -0.0596779H1.79742C0.906 -0.0596779 0.166547 0.564436 0.0248906 1.38295L6.57698 5.51065H0V9.48944H6.57698L0.0248906 13.6171C0.166547 14.4355 0.906 15.0597 1.79742 15.0597H2.26509L9.93103 10.2303V15.0597H14.069V10.2303L21.7349 15.0597H22.2026C23.094 15.0597 23.8335 14.4356 23.9751 13.6171L17.423 9.48935H24V5.51056H17.423L23.9751 1.3829Z" fill="#F5F5F5"/>
<path d="M13.2414 -0.0596619H10.7586V6.30637H0V8.69366H10.7586V15.0597H13.2414V8.69366H24V6.30637H13.2414V-0.0596619Z" fill="#FF4B55"/>
<path d="M1.16241 14.9483L9.90849 9.48941H8.38843L0.432617 14.4551C0.627289 14.6736 0.877461 14.8447 1.16241 14.9483Z" fill="#FF4B55"/>
<path d="M16.2369 9.48941H14.7168L23.1879 14.7766C23.4249 14.6269 23.6227 14.4247 23.7638 14.1873L16.2369 9.48941Z" fill="#FF4B55"/>
<path d="M0.189941 0.89581L7.58354 5.51061H9.1036L0.725535 0.281342C0.500582 0.442339 0.316504 0.652826 0.189941 0.89581Z" fill="#FF4B55"/>
<path d="M15.5889 5.51061L23.5593 0.535778C23.3625 0.318035 23.1103 0.147843 22.8234 0.0462952L14.0688 5.51061H15.5889Z" fill="#FF4B55"/>
</g>
<defs>
<clipPath id="clip0_109_142">
<rect width="24" height="15" fill="white"/>
</clipPath>
</defs>
</svg>
