<svg width="22" height="20" viewBox="0 0 22 20" fill="none" xmlns="http://www.w3.org/2000/svg">
<path d="M19.1207 2.87055C18.3695 2.03489 17.0146 1.98363 16.1116 2.90509L7.26778 11.9303C7.03849 12.1643 7.03849 12.4606 7.26778 12.6946C7.49706 12.9286 7.78749 12.9286 8.01677 12.6946L15.332 5.22935C15.538 5.02639 15.8138 4.91408 16.1 4.91662C16.3863 4.91916 16.6602 5.03634 16.8626 5.24293C17.065 5.44951 17.1799 5.72897 17.1823 6.02111C17.1848 6.31326 17.0748 6.59471 16.8759 6.80486L9.56062 14.2701C9.31132 14.5319 9.01309 14.74 8.68359 14.8821C8.35408 15.0242 7.99999 15.0975 7.64227 15.0975C7.28455 15.0975 6.93047 15.0242 6.60096 14.8821C6.27146 14.74 5.97323 14.5319 5.72393 14.2701C5.46739 14.0157 5.26346 13.7114 5.12421 13.3751C4.98496 13.0388 4.91321 12.6775 4.91321 12.3124C4.91321 11.9474 4.98496 11.586 5.12421 11.2498C5.26346 10.9135 5.46739 10.6092 5.72393 10.3548L14.5678 1.32958C16.2787 -0.417512 19.0606 -0.474336 20.7148 1.3463C22.4093 3.09451 22.4584 5.91905 20.682 7.60041L10.3249 18.1699C7.93379 20.61 4.18444 20.61 1.79333 18.1699C-0.597778 15.7298 -0.597778 11.9035 1.79333 9.46339L10.6372 0.438209C10.8431 0.235245 11.1189 0.122938 11.4052 0.125476C11.6914 0.128015 11.9653 0.245196 12.1677 0.451782C12.3702 0.658367 12.485 0.937827 12.4875 1.22997C12.49 1.52212 12.3799 1.80357 12.181 2.01372L3.33718 11.0389C1.7977 12.6099 1.7977 15.0233 3.33718 16.5944C4.87666 18.1654 7.24157 18.1654 8.78105 16.5944L19.1535 6.00931L19.1873 5.97588C20.0062 5.21041 20.0564 3.82655 19.1535 2.90509L19.1207 2.87055Z" fill="white" fill-opacity="0.8"/>
</svg>
