<svg width="24" height="24" viewBox="0 0 24 24" fill="none" xmlns="http://www.w3.org/2000/svg">
<g clip-path="url(#clip0_156_235)">
<path d="M21.75 0H2.25C1.00744 0 0 1.00744 0 2.25V21.75C0 22.9926 1.00744 24 2.25 24H21.75C22.9926 24 24 22.9926 24 21.75V2.25C24 1.00744 22.9926 0 21.75 0ZM20.8436 1.64062C21.3354 1.64062 21.7342 2.03944 21.7342 2.53125C21.7342 3.02306 21.3354 3.42188 20.8436 3.42188C20.3518 3.42188 19.953 3.02306 19.953 2.53125C19.953 2.03944 20.3518 1.64062 20.8436 1.64062ZM17.5389 1.64062C18.0308 1.64062 18.4296 2.03944 18.4296 2.53125C18.4296 3.02306 18.0308 3.42188 17.5389 3.42188C17.0471 3.42188 16.6483 3.02306 16.6483 2.53125C16.6483 2.03944 17.0471 1.64062 17.5389 1.64062ZM14.2343 1.64062C14.7261 1.64062 15.1249 2.03944 15.1249 2.53125C15.1249 3.02306 14.7261 3.42188 14.2343 3.42188C13.7424 3.42188 13.3436 3.02306 13.3436 2.53125C13.3436 2.03944 13.7424 1.64062 14.2343 1.64062ZM22.125 21.75C22.125 21.9565 21.9569 22.125 21.75 22.125H2.25C2.04309 22.125 1.875 21.9565 1.875 21.75V4.875H22.125V21.75Z" fill="white" fill-opacity="0.8"/>
<path d="M11.625 9H4.5V10.5H11.625V9Z" fill="white" fill-opacity="0.8"/>
<path d="M19.875 16.5H4.5V18H19.875V16.5Z" fill="white" fill-opacity="0.8"/>
<path d="M19.875 9H14.25V14.625H19.875V9Z" fill="white" fill-opacity="0.8"/>
<path d="M10.7363 14.25H11.625V12.75H4.5V14.25H9.98634H10.7363Z" fill="white" fill-opacity="0.8"/>
</g>
<defs>
<clipPath id="clip0_156_235">
<rect width="24" height="24" fill="white"/>
</clipPath>
</defs>
</svg>
