<svg width="34" height="34" viewBox="0 0 34 34" fill="none" xmlns="http://www.w3.org/2000/svg">
<path d="M15.4321 31.7827C15.4322 32.6486 16.134 33.3505 17 33.3505C17.8659 33.3506 18.5679 32.6486 18.5679 31.7826L15.4321 31.7827ZM18.5679 17C18.5679 16.134 17.866 15.4322 17 15.4322C16.1341 15.4322 15.4322 16.134 15.4322 17H18.5679ZM15.4322 17C15.4322 17.866 16.1341 18.5678 17 18.5678C17.866 18.5678 18.5679 17.866 18.5679 17H15.4322ZM18.5679 2.2174C18.5679 1.35145 17.8659 0.64945 17 0.649465C16.134 0.649479 15.4322 1.35136 15.4321 2.21731L18.5679 2.2174ZM17 15.4322C16.1341 15.4322 15.4322 16.134 15.4322 17C15.4322 17.866 16.1341 18.5678 17 18.5678V15.4322ZM31.7827 18.5678C32.6486 18.5678 33.3505 17.866 33.3505 17C33.3505 16.134 32.6486 15.4322 31.7827 15.4322V18.5678ZM17 18.5678C17.866 18.5678 18.5679 17.866 18.5679 17C18.5679 16.134 17.866 15.4322 17 15.4322V18.5678ZM2.21739 15.4321C1.35145 15.4321 0.649453 16.1341 0.649453 17C0.649453 17.8659 1.35145 18.5679 2.21739 18.5679L2.21739 15.4321ZM18.5679 31.7826L18.5679 17H15.4322L15.4321 31.7827L18.5679 31.7826ZM18.5679 17L18.5679 2.2174L15.4321 2.21731L15.4322 17H18.5679ZM17 18.5678L31.7827 18.5678V15.4322L17 15.4322V18.5678ZM17 15.4322L2.21739 15.4321L2.21739 18.5679L17 18.5678V15.4322Z" fill="#E5E80C"/>
</svg>
