<svg width="24" height="15" viewBox="0 0 24 15" fill="none" xmlns="http://www.w3.org/2000/svg">
<g clip-path="url(#clip0_159_4)">
<path d="M21.3333 0.099762H2.66667C1.95942 0.099762 1.28115 0.339659 0.781049 0.766678C0.280952 1.1937 0 1.77286 0 2.37676L0 7.5H24V2.37676C24 1.77286 23.719 1.1937 23.219 0.766678C22.7189 0.339659 22.0406 0.099762 21.3333 0.099762Z" fill="#005BBB"/>
<path d="M24 12.6232C24 13.2271 23.719 13.8063 23.219 14.2333C22.7189 14.6603 22.0406 14.9002 21.3333 14.9002H2.66667C1.95942 14.9002 1.28115 14.6603 0.781049 14.2333C0.280952 13.8063 0 13.2271 0 12.6232V7.5H24V12.6232Z" fill="#FFD500"/>
</g>
<defs>
<clipPath id="clip0_159_4">
<rect width="24" height="15" fill="white"/>
</clipPath>
</defs>
</svg>
