<svg width="180" height="180" viewBox="0 0 180 180" fill="none" xmlns="http://www.w3.org/2000/svg">
<g clip-path="url(#clip0_109_399)">
<path d="M0 90C0.075 40.3275 40.3275 0.075 90 0C139.673 0.075 179.925 40.3275 180 90C179.925 139.673 139.673 179.925 90 180C40.3275 179.925 0.075 139.673 0 90ZM90 172.53C108.541 172.549 126.543 166.292 141.075 154.777L138.803 149.858C137.495 150.296 136.071 150.236 134.805 149.69C133.539 149.143 132.519 148.148 131.942 146.896C131.365 145.643 131.27 144.221 131.677 142.904C132.083 141.586 132.962 140.464 134.145 139.755L128.73 128.033C126.463 128.766 124.001 128.605 121.849 127.581C119.697 126.558 118.019 124.749 117.158 122.527L98.6025 127.275V127.365C98.591 128.15 98.4145 128.925 98.0844 129.637C97.7543 130.35 97.278 130.985 96.6865 131.502C96.0949 132.019 95.4013 132.406 94.6507 132.637C93.9001 132.868 93.1092 132.939 92.3294 132.845C91.5496 132.751 90.7982 132.494 90.1242 132.091C89.4501 131.687 88.8684 131.147 88.4168 130.504C87.9652 129.862 87.6537 129.131 87.5027 128.36C87.3516 127.59 87.3643 126.796 87.54 126.03L61.5 114.825C60.554 116.468 59.13 117.783 57.4177 118.597C55.7054 119.41 53.786 119.682 51.915 119.378L46.305 138.803C47.3149 139.33 48.1399 140.154 48.6698 141.162C49.1997 142.171 49.4094 143.318 49.2709 144.449C49.1323 145.58 48.6522 146.642 47.8945 147.493C47.1367 148.344 46.1375 148.944 45.03 149.213L45.42 159.412C58.7054 167.989 74.1869 172.549 90 172.53ZM43.125 157.875L42.795 149.31C41.3649 149.08 40.0793 148.305 39.2082 147.148C38.337 145.991 37.948 144.541 38.1226 143.103C38.2973 141.665 39.022 140.351 40.1449 139.436C41.2678 138.521 42.7014 138.076 44.145 138.195L49.7625 118.77C48.0735 118.054 46.6329 116.856 45.6205 115.326C44.6081 113.796 44.0689 112.002 44.07 110.168L9.015 105.923C13.2042 127.014 25.4377 145.646 43.125 157.875ZM142.875 153.315C151.365 146.216 158.351 137.493 163.425 127.658L134.73 122.025C134.046 124.12 132.643 125.905 130.77 127.065L136.26 138.975C137.453 138.807 138.668 139.029 139.726 139.606C140.783 140.184 141.626 141.087 142.129 142.182C142.633 143.276 142.77 144.504 142.521 145.683C142.271 146.861 141.649 147.928 140.745 148.725L142.883 153.315H142.875ZM164.46 125.58C169.788 114.476 172.546 102.316 172.53 90C172.548 70.9466 165.941 52.4797 153.84 37.7625L142.5 41.6325C142.695 42.4559 142.702 43.3129 142.52 44.1393C142.338 44.9658 141.971 45.7404 141.448 46.4053C140.924 47.0702 140.257 47.6082 139.497 47.9792C138.736 48.3501 137.901 48.5444 137.055 48.5475C135.973 48.5476 134.915 48.2347 134.007 47.6465C133.1 47.0582 132.382 46.2198 131.94 45.2325L108.368 53.25C109.418 57.0375 109.248 61.0598 107.882 64.7451C106.515 68.4303 104.021 71.591 100.755 73.7775L122.183 110.535C123.656 109.903 125.268 109.662 126.862 109.834C128.456 110.006 129.979 110.586 131.284 111.517C132.589 112.448 133.633 113.7 134.314 115.152C134.995 116.603 135.291 118.206 135.173 119.805L164.46 125.58ZM98.115 125.07L116.603 120.345C116.385 118.705 116.608 117.037 117.248 115.512C117.889 113.987 118.924 112.66 120.248 111.667L98.8275 74.9175C95.962 76.3778 92.7665 77.0694 89.5536 76.9248C86.3407 76.7802 83.2203 75.8043 80.4975 74.0925L59.7225 103.283C61.0049 104.456 61.9332 105.966 62.4025 107.64C62.8717 109.314 62.863 111.086 62.3775 112.755L88.5 123.982C89.083 123.196 89.8623 122.575 90.7601 122.184C91.6579 121.793 92.6427 121.644 93.6161 121.752C94.5894 121.861 95.5172 122.223 96.3067 122.803C97.0962 123.382 97.7198 124.159 98.115 125.055V125.07ZM44.34 107.94C44.6826 106.549 45.3406 105.255 46.263 104.158C47.1855 103.062 48.3477 102.192 49.6598 101.617C50.972 101.041 52.3989 100.775 53.8303 100.839C55.2617 100.903 56.6593 101.295 57.915 101.985L78.69 72.81C76.5111 71.0627 74.7529 68.8478 73.5456 66.3293C72.3382 63.8108 71.7126 61.053 71.715 58.26C71.715 53.7375 73.3575 49.365 76.3425 45.96L48.57 18.6525C34.0687 27.0804 22.4769 39.7234 15.3361 54.8999C8.1953 70.0763 5.84404 87.0671 8.595 103.612L44.3325 107.947L44.34 107.94ZM107.64 51.15L131.445 43.0275V42.9525C131.444 41.776 131.814 40.6292 132.502 39.6747C133.19 38.7202 134.161 38.0064 135.277 37.6346C136.393 37.2628 137.598 37.2518 138.721 37.6033C139.844 37.9547 140.827 38.6507 141.533 39.5925L152.28 35.925C139.978 21.7088 123.182 12.1291 104.684 8.77691C86.1848 5.42477 67.0958 8.50201 50.5875 17.4975L77.8875 44.355C80.1116 42.356 82.7832 40.9203 85.6777 40.1688C88.5721 39.4172 91.6048 39.3717 94.5204 40.0361C97.4361 40.7006 100.15 42.0555 102.433 43.9869C104.716 45.9183 106.502 48.3697 107.64 51.135L107.625 51.1575L107.64 51.15Z" fill="#007ACC"/>
</g>
<defs>
<clipPath id="clip0_109_399">
<rect width="180" height="180" fill="white"/>
</clipPath>
</defs>
</svg>
