<svg width="180" height="180" viewBox="0 0 180 180" fill="none" xmlns="http://www.w3.org/2000/svg">
<g clip-path="url(#clip0_109_376)">
<path d="M153 0H27C12.0883 0 0 12.0883 0 27V153C0 167.912 12.0883 180 27 180H153C167.912 180 180 167.912 180 153V27C180 12.0883 167.912 0 153 0Z" fill="#113228"/>
<path d="M79.8047 35.5078H99.4922V125.859C89.2969 127.617 81.9141 128.672 73.8281 128.672C49.5703 128.672 37.2656 117.773 37.2656 97.0312C37.2656 76.9922 50.2734 64.3359 71.0156 64.3359C74.1797 64.3359 76.6406 64.3359 79.8047 65.0391V35.5078ZM79.8047 80.8594C77.3438 80.1562 75.5859 79.8047 73.125 79.8047C62.9297 79.8047 57.3047 86.1328 57.3047 96.6797C57.3047 107.227 62.5781 112.852 72.7734 112.852C74.8828 112.852 76.6406 112.852 79.8047 112.148V80.8594ZM130.781 65.3906V110.742C130.781 126.562 129.727 133.945 126.211 140.273C123.047 146.602 118.828 150.469 110.039 155.039L91.7578 146.25C100.547 142.383 104.766 138.516 107.227 133.242C110.039 127.617 111.094 121.289 111.094 104.062V65.3906H130.781ZM111.094 35.5078H130.781V55.5469H111.094V35.5078Z" fill="white"/>
</g>
<defs>
<clipPath id="clip0_109_376">
<rect width="180" height="180" fill="white"/>
</clipPath>
</defs>
</svg>
