<svg width="180" height="180" viewBox="0 0 180 180" fill="none" xmlns="http://www.w3.org/2000/svg">
<path d="M168.75 11.25H11.25V168.75H168.75V11.25Z" fill="#F5DE19"/>
<path d="M117.051 134.297C118.393 137.023 120.478 139.314 123.065 140.906C125.653 142.499 128.638 143.327 131.676 143.297C137.807 143.297 141.728 140.231 141.728 135.985C141.728 130.922 137.7 129.111 130.95 126.158L127.249 124.571C116.561 120.021 109.474 114.323 109.474 102.274C109.474 91.1757 117.911 82.7214 131.147 82.7214C135.431 82.412 139.712 83.3709 143.456 85.4786C147.199 87.5862 150.238 90.7493 152.196 94.5733L140.625 101.97C139.871 100.074 138.559 98.4519 136.862 97.3187C135.166 96.1855 133.165 95.5949 131.124 95.6251C130.234 95.536 129.335 95.6333 128.485 95.9108C127.635 96.1883 126.851 96.6399 126.185 97.2368C125.519 97.8337 124.984 98.5629 124.615 99.3778C124.246 100.193 124.051 101.076 124.043 101.97C124.043 106.408 126.793 108.208 133.144 110.97L136.845 112.556C149.423 117.951 156.533 123.446 156.533 135.805C156.533 149.13 146.064 156.431 132.008 156.431C126.53 156.78 121.069 155.537 116.284 152.851C111.498 150.165 107.591 146.151 105.036 141.295L117.051 134.297ZM64.7663 135.58C67.0894 139.703 69.2044 143.19 74.2894 143.19C79.1494 143.19 82.2207 141.289 82.2207 133.892V83.5651H97.02V134.089C97.02 149.411 88.02 156.386 74.9194 156.386C70.2886 156.64 65.6896 155.485 61.727 153.076C57.7644 150.666 54.6236 147.114 52.7175 142.886L64.7663 135.58Z" fill="black"/>
</svg>
