<svg width="176" height="180" viewBox="0 0 176 180" fill="none" xmlns="http://www.w3.org/2000/svg">
<path d="M177.174 40.6497C177.239 40.8893 177.273 41.1363 177.273 41.3844V79.9536C177.273 80.9612 176.733 81.8918 175.859 82.3931L143.488 101.031V137.973C143.488 138.978 142.953 139.906 142.081 140.412L74.5081 179.312C74.3535 179.4 74.1847 179.456 74.016 179.516C73.9527 179.537 73.893 179.575 73.8262 179.593C73.3538 179.717 72.8573 179.717 72.3849 179.593C72.3076 179.572 72.2373 179.53 72.1635 179.501C72.0088 179.445 71.8471 179.396 71.6995 179.312L4.14018 140.412C3.26662 139.91 2.72705 138.98 2.72705 137.973V22.265C2.72705 22.0119 2.7622 21.7659 2.82548 21.5268C2.84657 21.446 2.89578 21.3722 2.9239 21.2913C2.97663 21.1437 3.02585 20.9925 3.10318 20.8554C3.15591 20.764 3.23324 20.6902 3.29652 20.6059C3.37737 20.4934 3.45119 20.3774 3.5461 20.2789C3.62695 20.1981 3.73241 20.1383 3.8238 20.068C3.92575 19.9837 4.01714 19.8923 4.13314 19.8255H4.13666L37.9181 0.375677C38.7885 -0.125226 39.8598 -0.125226 40.7303 0.375677L74.5117 19.8255H74.5187C74.6312 19.8958 74.7261 19.9837 74.828 20.0645C74.9194 20.1348 75.0214 20.1981 75.1022 20.2754C75.2006 20.3774 75.2709 20.4934 75.3553 20.6059C75.4151 20.6902 75.4959 20.764 75.5451 20.8554C75.626 20.996 75.6717 21.1437 75.7279 21.2913C75.7561 21.3722 75.8053 21.446 75.8264 21.5304C75.8911 21.7699 75.9242 22.0169 75.9248 22.265V94.5348L104.075 78.326V41.3809C104.075 41.1348 104.11 40.8852 104.173 40.6497C104.198 40.5654 104.244 40.4915 104.272 40.4107C104.328 40.263 104.377 40.1119 104.454 39.9748C104.507 39.8834 104.584 39.8096 104.644 39.7252C104.729 39.6127 104.799 39.4967 104.897 39.3983C104.978 39.3174 105.08 39.2577 105.172 39.1874C105.277 39.103 105.368 39.0116 105.481 38.9448H105.484L139.269 19.495C140.14 18.9934 141.211 18.9934 142.081 19.495L175.863 38.9448C175.982 39.0151 176.074 39.103 176.179 39.1839C176.267 39.2542 176.369 39.3174 176.45 39.3948C176.548 39.4967 176.619 39.6127 176.703 39.7252C176.766 39.8096 176.844 39.8834 176.893 39.9748C176.974 40.1119 177.019 40.263 177.076 40.4107C177.107 40.4915 177.153 40.5654 177.174 40.6497ZM171.641 78.326V46.253L159.819 53.0585L143.488 62.4618V94.5348L171.645 78.326H171.641ZM137.86 136.345V104.251L121.795 113.426L75.9213 139.607V172.003L137.86 136.345ZM8.35846 27.1336V136.345L70.2899 172V139.611L37.9356 121.3L37.9251 121.293L37.911 121.286C37.8021 121.222 37.7107 121.131 37.6087 121.054C37.5208 120.983 37.4189 120.927 37.3416 120.85L37.3345 120.839C37.2431 120.751 37.1799 120.642 37.1025 120.544C37.0322 120.449 36.9479 120.368 36.8916 120.27L36.8881 120.259C36.8248 120.154 36.7862 120.027 36.7405 119.908C36.6948 119.802 36.635 119.704 36.6069 119.591V119.588C36.5717 119.454 36.5647 119.314 36.5506 119.177C36.5366 119.071 36.5085 118.966 36.5085 118.86V118.853V43.3424L20.1802 33.9356L8.35846 27.1372V27.1336ZM39.3277 6.06333L11.1812 22.265L39.3206 38.4668L67.4636 22.2615L39.3206 6.06333H39.3277ZM53.9651 107.176L70.2934 97.7758V27.1336L58.4716 33.9391L42.1399 43.3424V113.985L53.9651 107.176ZM140.675 25.1827L112.532 41.3844L140.675 57.5861L168.815 41.3809L140.675 25.1827ZM137.86 62.4618L121.528 53.0585L109.706 46.253V78.326L126.034 87.7257L137.86 94.5348V62.4618ZM73.102 134.738L114.381 111.172L135.016 99.3963L106.894 83.2051L74.5152 101.846L45.0048 118.836L73.102 134.738Z" fill="#FF2D20"/>
</svg>
