<svg width="180" height="180" viewBox="0 0 180 180" fill="none" xmlns="http://www.w3.org/2000/svg">
<g clip-path="url(#clip0_241_2)">
<path d="M55.0989 128.38H50.2257C50.0534 120.155 49.5788 112.422 48.8029 105.175H48.7596L41.3402 128.38H37.63L30.2549 105.175H30.2126C29.6655 112.132 29.3208 119.867 29.1777 128.38H24.7358C25.0221 118.028 25.7415 108.323 26.8913 99.2646H32.9311L39.9607 120.658H40.004L47.0768 99.2646H52.8558C54.1214 109.875 54.8691 119.581 55.0989 128.38ZM76.2326 106.899C74.2485 117.666 71.6307 125.489 68.382 130.373C65.8508 134.132 63.0776 136.013 60.0577 136.013C59.2525 136.013 58.2591 135.77 57.082 135.288V132.692C57.6574 132.775 58.3325 132.822 59.1085 132.822C60.5191 132.822 61.6528 132.434 62.5173 131.656C63.5512 130.709 64.0682 129.644 64.0682 128.466C64.0682 127.658 63.6652 126.006 62.861 123.505L57.5133 106.898H62.3007L66.1389 119.318C67.0015 122.139 67.3612 124.108 67.2171 125.229C69.3161 119.623 70.7823 113.511 71.6175 106.897H76.2326V106.899Z" fill="#5D87A1"/>
<path d="M141.099 128.38H127.256V99.2647H131.913V124.796H141.099V128.38ZM123.633 129.083L118.28 126.442C118.755 126.052 119.209 125.63 119.617 125.142C121.893 122.469 123.027 118.517 123.027 113.282C123.027 103.65 119.247 98.8315 111.685 98.8315C107.977 98.8315 105.084 100.054 103.015 102.499C100.742 105.174 99.6071 109.112 99.6071 114.318C99.6071 119.436 100.613 123.191 102.625 125.572C104.466 127.729 107.241 128.809 110.952 128.809C112.337 128.809 113.607 128.64 114.764 128.298L121.732 132.355L123.633 129.083ZM106.294 122.554C105.115 120.657 104.525 117.612 104.525 113.413C104.525 106.082 106.752 102.413 111.211 102.413C113.542 102.413 115.25 103.29 116.342 105.042C117.519 106.941 118.112 109.959 118.112 114.1C118.112 121.491 115.883 125.187 111.427 125.187C109.095 125.188 107.387 124.313 106.294 122.554ZM97.5778 120.31C97.5778 122.779 96.6719 124.805 94.8621 126.391C93.0503 127.971 90.6208 128.763 87.5764 128.763C84.7288 128.763 81.9679 127.854 79.2954 126.044L80.5469 123.544C82.8464 124.695 84.9284 125.268 86.7976 125.268C88.552 125.268 89.923 124.879 90.9174 124.108C91.9109 123.334 92.5032 122.248 92.5032 120.875C92.5032 119.145 91.2969 117.667 89.084 116.428C87.0434 115.308 82.9622 112.965 82.9622 112.965C80.7503 111.353 79.6429 109.622 79.6429 106.771C79.6429 104.411 80.4687 102.506 82.1213 101.057C83.7758 99.6018 85.9106 98.8767 88.5275 98.8767C91.2301 98.8767 93.6869 99.6009 95.8998 101.034L94.7773 103.535C92.8846 102.731 91.0163 102.329 89.1735 102.329C87.6809 102.329 86.5283 102.688 85.727 103.408C84.919 104.126 84.4209 105.044 84.4209 106.17C84.4209 107.891 85.6526 109.389 87.9258 110.651C89.9937 111.774 94.1765 114.157 94.1765 114.157C96.445 115.766 97.5778 117.481 97.5778 120.31Z" fill="#F8981D"/>
<path d="M146.945 89.5125C144.129 89.4409 141.949 89.7243 140.119 90.4984C139.591 90.7093 138.751 90.7093 138.678 91.377C138.963 91.6595 138.996 92.1152 139.244 92.5051C139.665 93.2085 140.401 94.1549 141.072 94.6483C141.81 95.2133 142.55 95.7726 143.326 96.2651C144.694 97.1117 146.245 97.6042 147.578 98.4479C148.355 98.9385 149.127 99.5732 149.905 100.101C150.287 100.383 150.532 100.84 151.029 101.016V100.908C150.78 100.592 150.709 100.134 150.465 99.7822L149.409 98.7634C148.388 97.3923 147.12 96.1954 145.751 95.2124C144.625 94.4364 142.162 93.3818 141.705 92.0841L141.634 92.0126C142.408 91.9401 143.326 91.6595 144.061 91.4438C145.258 91.1284 146.349 91.1999 147.577 90.8845C148.142 90.7432 148.703 90.5662 149.27 90.392V90.0746C148.633 89.4409 148.179 88.599 147.51 88.0002C145.718 86.453 143.745 84.9397 141.705 83.6732C140.613 82.9679 139.208 82.514 138.045 81.9142C137.626 81.7023 136.92 81.5978 136.673 81.2456C136.042 80.4715 135.687 79.4527 135.229 78.5364C134.212 76.6032 133.224 74.4581 132.347 72.4137C131.712 71.0427 131.326 69.6735 130.552 68.4051C126.927 62.4255 122.99 58.8039 116.938 55.2491C115.638 54.5089 114.091 54.1935 112.438 53.8055L109.799 53.6661C109.236 53.4194 108.672 52.7499 108.18 52.4335C106.172 51.1679 101.004 48.4248 99.5271 52.0465C98.576 54.3357 100.934 56.5862 101.744 57.7473C102.342 58.5534 103.117 59.4706 103.535 60.3859C103.782 60.9838 103.852 61.6185 104.1 62.2503C104.663 63.7984 105.189 65.5207 105.929 66.9653C106.316 67.7016 106.736 68.4757 107.23 69.1424C107.512 69.5322 108.004 69.7046 108.111 70.3402C107.621 71.0408 107.582 72.0983 107.3 72.9778C106.035 76.9525 106.529 81.8765 108.323 84.7976C108.884 85.6771 110.223 87.6131 112.014 86.8711C113.6 86.2383 113.249 84.2335 113.705 82.4754C113.809 82.0507 113.741 81.772 113.951 81.4932V81.562C114.442 82.546 114.937 83.4943 115.392 84.4811C116.484 86.2034 118.384 87.9983 119.967 89.1914C120.81 89.8279 121.477 90.9165 122.533 91.3054V91.1999H122.463C122.249 90.8845 121.937 90.7432 121.656 90.4984C121.021 89.8646 120.319 89.0906 119.826 88.3881C118.352 86.4172 117.047 84.2354 115.888 81.9839C115.322 80.8915 114.833 79.6975 114.376 78.607C114.163 78.1861 114.163 77.5514 113.81 77.3396C113.281 78.1127 112.51 78.7822 112.124 79.7295C111.454 81.2446 111.384 83.1082 111.136 85.0461L110.997 85.1139C109.877 84.8324 109.487 83.6732 109.061 82.6892C108.008 80.19 107.831 76.1785 108.745 73.2951C108.99 72.5578 110.049 70.2357 109.626 69.5332C109.415 68.8599 108.71 68.4766 108.324 67.9465C107.87 67.2798 107.373 66.436 107.057 65.6959C106.213 63.7269 105.788 61.545 104.879 59.577C104.455 58.6598 103.717 57.7106 103.12 56.8659C102.45 55.9167 101.713 55.2481 101.182 54.1228C101.007 53.7358 100.762 53.103 101.043 52.6821C101.112 52.3996 101.255 52.2941 101.536 52.2235C101.991 51.8384 103.294 52.328 103.75 52.5399C105.055 53.0672 106.145 53.5597 107.234 54.298C107.726 54.6511 108.254 55.3197 108.886 55.4958H109.626C110.75 55.7406 112.016 55.5636 113.074 55.8819C114.937 56.4808 116.626 57.3593 118.14 58.3076C122.748 61.2296 126.547 65.3814 129.112 70.3402C129.533 71.1481 129.712 71.8883 130.096 72.7311C130.837 74.4562 131.754 76.2152 132.489 77.9036C133.228 79.5562 133.933 81.2437 134.988 82.6167C135.515 83.3549 137.63 83.7419 138.578 84.129C139.279 84.4444 140.372 84.725 141.005 85.1121C142.201 85.8494 143.394 86.6959 144.519 87.5067C145.079 87.9286 146.84 88.8081 146.945 89.5125ZM111.061 58.9423C110.576 58.9372 110.092 58.9968 109.622 59.1193V59.1899H109.689C109.973 59.7521 110.465 60.142 110.817 60.6326C111.1 61.1966 111.346 61.756 111.624 62.3191L111.691 62.2494C112.188 61.8982 112.434 61.335 112.434 60.4904C112.221 60.2418 112.188 59.9988 112.01 59.7521C111.803 59.3999 111.346 59.2248 111.061 58.9423Z" fill="#5D87A1"/>
<path d="M150.295 128.375H151.024V124.808H149.931L149.039 127.242L148.07 124.808H147.017V128.375H147.706V125.661H147.744L148.759 128.375H149.284L150.295 125.661V128.375ZM144.424 128.375H145.195V125.413H146.205V124.807H143.372V125.413H144.422L144.424 128.375Z" fill="#F8981D"/>
</g>
<defs>
<clipPath id="clip0_241_2">
<rect width="180" height="180" fill="white"/>
</clipPath>
</defs>
</svg>
