<svg width="180" height="180" viewBox="0 0 180 180" fill="none" xmlns="http://www.w3.org/2000/svg">
<path d="M96.5953 12.9303C92.6027 10.6849 87.3973 10.6949 83.4013 12.9303C63.3876 23.9753 43.3734 35.0236 23.3559 46.0635C19.4607 48.1126 16.8336 52.2955 16.8755 56.637V123.372C16.8474 127.798 19.61 132.022 23.6056 134.043C29.3552 137.102 34.9414 140.471 40.795 143.326C47.5566 146.649 56.0162 147.383 62.8605 143.918C68.4163 141.047 70.884 134.66 70.8767 128.79C70.9217 106.766 70.884 84.7412 70.8941 62.7165C71.0263 61.7378 70.2911 60.6915 69.2235 60.7151C66.6658 60.6746 64.1047 60.6915 61.5471 60.7084C60.5807 60.6173 59.6374 61.4199 59.7105 62.3914C59.6762 84.2738 59.7172 106.163 59.6897 128.049C59.7454 131.076 57.7001 133.985 54.7826 135.008C48.0442 137.37 28.8111 124.882 28.8111 124.882C28.1053 124.555 27.6571 123.789 27.7263 123.029C27.7263 101.012 27.7297 78.9936 27.7263 56.9796C27.6293 56.092 28.1763 55.2926 28.9914 54.9303C48.9393 43.9504 68.877 32.943 88.8249 21.9564C89.5179 21.494 90.4837 21.4954 91.1751 21.9598C111.123 32.943 131.064 43.9403 151.016 54.9207C151.833 55.2825 152.357 56.0953 152.274 56.9796C152.27 78.9936 152.281 101.012 152.267 123.026C152.326 123.805 151.923 124.56 151.196 124.902C131.434 135.822 111.448 146.391 91.8647 157.628C91.0102 158.118 90.0422 158.673 89.0848 158.133C83.9351 155.285 78.8479 152.326 73.7151 149.45C73.1571 149.101 72.4466 148.952 71.8644 149.342C69.5632 150.554 67.3987 151.536 64.7561 152.583C61.0447 154.052 61.6376 154.653 64.9851 156.603C70.9875 160 77.0001 163.383 83.0025 166.784C86.9541 169.25 92.2635 169.425 96.3422 167.146C116.359 156.115 136.37 145.071 156.391 134.04C160.376 132.008 163.153 127.801 163.124 123.371V56.637C163.163 52.3836 160.637 48.2753 156.859 46.1958C136.775 35.097 116.682 24.0224 96.5953 12.9303Z" fill="#8CC84B"/>
<path d="M126.798 63.035C118.942 58.832 109.595 58.6081 100.865 59.1577C94.5575 59.7809 87.9239 61.5213 83.3289 66.0427C78.6157 70.5877 77.5897 77.9272 79.8284 83.8604C81.4327 88.0533 85.4709 90.7797 89.6469 92.222C95.026 94.121 100.676 94.7082 106.327 95.2955C111.482 95.831 116.638 96.3671 121.593 97.8987C123.617 98.5692 125.974 99.5952 126.594 101.797C127.166 104.405 126.538 107.436 124.421 109.248C117.696 114.571 98.9883 113.756 92.3435 109.566C89.657 107.781 88.4994 104.622 88.0285 101.611C87.9762 100.672 87.2208 99.8118 86.2021 99.8832C83.6512 99.8529 81.1002 99.8596 78.5493 99.8799C77.6594 99.805 76.7341 100.438 76.6852 101.347C76.1609 115.138 88.8267 121.15 100.71 122.473C107.498 123.12 114.436 123.083 121.122 121.626C126.147 120.482 131.186 118.375 134.645 114.504C138.911 109.8 139.75 102.796 137.837 96.9369C136.374 92.5646 132.194 89.7599 127.922 88.3171C122.111 86.3247 115.225 85.2537 109.962 84.7526C102.313 84.0241 93.2227 84.3217 91.0576 79.2952C90.1942 76.6632 90.9288 73.3951 93.3475 71.7762C99.7471 67.4354 112.772 68.012 119.399 71.2548C122.442 72.7786 124.206 75.9084 124.934 79.0679C125.069 79.9961 125.693 80.9647 126.767 80.9242C129.301 80.9748 131.834 80.9377 134.367 80.9411C135.237 81.0018 136.19 80.5107 136.36 79.6197C136.253 73.016 132.881 66.2559 126.798 63.035Z" fill="#8CC84B"/>
</svg>
