<svg width="180" height="180" viewBox="0 0 180 180" fill="none" xmlns="http://www.w3.org/2000/svg">
<path d="M176.597 107.786C175.55 104.616 172.808 102.408 169.263 101.879C167.591 101.629 165.677 101.735 163.411 102.203C159.462 103.017 156.532 103.328 154.394 103.388C162.465 89.7614 169.027 74.2228 172.805 59.5957C178.914 35.9441 175.65 25.1694 171.835 20.2957C161.739 7.39572 147.01 0.465714 129.24 0.253669C119.761 0.13776 111.439 2.00935 107.098 3.35526C103.056 2.64208 98.7104 2.2439 94.1505 2.17026C85.6025 2.0339 78.05 3.89731 71.5966 7.72708C68.0239 6.5189 62.2898 4.81571 55.668 3.7289C40.0939 1.17208 27.5416 3.16435 18.3602 9.65049C7.2425 17.5037 2.08864 31.1482 3.04182 50.205C3.34455 56.2555 6.7291 74.6646 12.0582 92.1232C15.1209 102.158 18.3868 110.491 21.7652 116.894C26.5564 125.972 31.683 131.318 37.4382 133.238C40.6639 134.313 46.5248 135.065 52.6891 129.931C53.4705 130.878 54.513 131.818 55.8964 132.691C57.6534 133.799 59.8018 134.705 61.9475 135.241C69.68 137.174 76.923 136.691 83.1023 133.981C83.1405 135.08 83.1698 136.13 83.1943 137.037C83.2352 138.508 83.2761 139.95 83.33 141.299C83.6961 150.417 84.3166 157.508 86.1548 162.468C86.2557 162.741 86.3914 163.157 86.5345 163.598C87.4516 166.406 88.985 171.106 92.8864 174.788C96.9261 178.601 101.813 179.77 106.288 179.77C108.533 179.77 110.674 179.476 112.553 179.073C119.248 177.638 126.852 175.452 132.353 167.62C137.554 160.215 140.082 149.063 140.54 131.49C140.599 130.993 140.654 130.518 140.706 130.066L140.815 129.138L142.041 129.245L142.356 129.267C149.176 129.578 157.515 128.131 162.636 125.753C166.682 123.875 179.65 117.029 176.597 107.786Z" fill="black"/>
<path d="M164.936 109.583C144.659 113.766 143.265 106.901 143.265 106.901C164.674 75.1332 173.624 34.8084 165.901 24.9391C144.83 -1.98251 108.356 10.7498 107.747 11.0798L107.552 11.1152C103.545 10.2834 99.0623 9.7884 94.023 9.7059C84.8484 9.5559 77.8884 12.1114 72.6071 16.1164C72.6071 16.1164 7.54115 -10.6886 10.5677 49.8282C11.2114 62.7023 29.0205 147.242 50.2618 121.707C58.0257 112.369 65.5277 104.475 65.5277 104.475C69.2532 106.95 73.7136 108.212 78.3896 107.759L78.753 107.451C78.6398 108.61 78.6916 109.744 78.8982 111.086C73.4259 117.2 75.0343 118.273 64.0952 120.525C53.0259 122.807 59.5284 126.867 63.7741 127.93C68.9212 129.216 80.8284 131.04 88.8739 119.777L88.5534 121.062C90.6971 122.779 92.2025 132.232 91.9502 140.802C91.698 149.371 91.5296 155.254 93.2184 159.85C94.9087 164.445 96.5921 174.785 110.973 171.704C122.989 169.129 129.216 162.456 130.082 151.324C130.697 143.411 132.088 144.581 132.175 137.506L133.292 134.157C134.578 123.43 133.496 119.969 140.899 121.579L142.699 121.737C148.146 121.984 155.278 120.86 159.464 118.915C168.476 114.732 173.822 107.749 164.935 109.583H164.936Z" fill="#336791"/>
<path d="M76.4156 55.5854C74.5883 55.3311 72.9335 55.5663 72.0963 56.2004C71.6258 56.557 71.4799 56.9702 71.4403 57.2545C71.3353 58.0079 71.8631 58.8411 72.1876 59.2706C73.1053 60.487 74.4458 61.3229 75.7726 61.507C75.9649 61.5342 76.1565 61.5465 76.3467 61.5465C78.5592 61.5465 80.5713 59.8236 80.7485 58.552C80.9701 56.9592 78.6581 55.897 76.4156 55.5854ZM136.95 55.6358C136.776 54.3874 134.554 54.0315 132.446 54.3247C130.341 54.6179 128.299 55.5683 128.47 56.8195C128.606 57.7924 130.363 59.4533 132.443 59.4533C132.619 59.4533 132.796 59.4417 132.974 59.4165C134.363 59.2242 135.381 58.3427 135.865 57.8347C136.602 57.0602 137.029 56.197 136.95 55.6358Z" fill="white"/>
<path d="M171.683 109.108C170.91 106.77 168.421 106.018 164.287 106.871C152.011 109.405 147.614 107.65 146.171 106.587C155.713 92.0508 163.563 74.479 167.798 58.0847C169.803 50.3188 170.911 43.1065 171.002 37.2279C171.102 30.7758 170.003 26.0345 167.737 23.1381C158.599 11.462 145.188 5.19877 128.954 5.02696C117.793 4.9015 108.364 7.75764 106.536 8.56082C102.686 7.60355 98.4894 7.01582 93.9205 6.94082C85.5424 6.80514 78.3001 8.81105 72.3042 12.8999C69.6996 11.9304 62.9687 9.61968 54.7371 8.29355C40.5062 6.00264 29.1976 7.73855 21.1276 13.4556C11.4983 20.2779 7.05282 32.4729 7.91395 49.701C8.20373 55.4972 11.5065 73.3281 16.7183 90.4042C23.5787 112.88 31.0365 125.603 38.8828 128.221C39.8012 128.527 40.8601 128.741 42.028 128.741C44.8903 128.741 48.3996 127.451 52.0508 123.061C56.5041 117.719 61.1108 112.506 65.8651 107.43C68.9496 109.085 72.3383 110.01 75.804 110.103C75.8108 110.193 75.8196 110.284 75.8278 110.374C75.2312 111.085 74.6471 111.807 74.0755 112.539C71.6742 115.587 71.1744 116.222 63.4446 117.813C61.2458 118.267 55.406 119.471 55.3201 123.564C55.2274 128.037 62.2235 129.916 63.0205 130.115C65.7983 130.81 68.4744 131.153 71.0265 131.153C77.233 131.153 82.6951 129.113 87.0601 125.166C86.9258 141.111 87.5905 156.823 89.5051 161.61C91.0733 165.529 94.9037 175.106 107.003 175.106C108.779 175.106 110.733 174.899 112.883 174.438C125.511 171.731 130.994 166.15 133.116 153.845C134.251 147.269 136.199 131.566 137.115 123.143C139.049 123.746 141.538 124.023 144.229 124.022C149.842 124.022 156.318 122.829 160.38 120.944C164.943 118.825 173.176 113.626 171.683 109.108ZM141.611 52.1897C141.569 54.6763 141.227 56.9338 140.864 59.2901C140.474 61.8244 140.07 64.4447 139.969 67.6254C139.868 70.7208 140.255 73.939 140.629 77.0515C141.384 83.3379 142.159 89.8097 139.159 96.1956C138.66 95.3124 138.216 94.3995 137.829 93.4622C137.456 92.5581 136.646 91.1058 135.524 89.0958C131.161 81.2713 120.944 62.9481 126.175 55.4713C127.733 53.2458 131.686 50.9576 141.611 52.1897ZM129.581 10.0622C144.127 10.3833 155.633 15.8249 163.78 26.2349C170.028 34.2197 163.148 70.5517 143.23 101.896C143.029 101.641 142.828 101.387 142.626 101.134L142.373 100.819C147.52 92.3188 146.514 83.9085 145.618 76.4522C145.25 73.3922 144.902 70.5019 144.991 67.7869C145.082 64.9097 145.463 62.4415 145.831 60.0551C146.283 57.1145 146.743 54.0715 146.616 50.4845C146.711 50.1081 146.749 49.6635 146.699 49.1358C146.376 45.696 142.448 35.4013 134.444 26.0835C130.065 20.987 123.68 15.2835 114.961 11.4367C118.711 10.6595 123.839 9.93468 129.581 10.0622ZM48.1869 119.849C44.1642 124.685 41.3865 123.758 40.4728 123.454C34.5205 121.469 27.6137 108.888 21.5244 88.9376C16.2553 71.6754 13.1762 54.317 12.9321 49.4495C12.163 34.0554 15.8946 23.327 24.024 17.5615C37.254 8.17968 59.0053 13.7951 67.7455 16.6431C67.6201 16.7672 67.4892 16.8831 67.3651 17.0092C53.0224 31.4938 53.3626 56.241 53.398 57.754C53.3967 58.3376 53.4458 59.164 53.5126 60.3006C53.7594 64.4631 54.219 72.2099 52.9917 80.9829C51.8517 89.1354 54.3649 97.1147 59.8855 102.875C60.4521 103.465 61.0476 104.027 61.6699 104.558C59.2126 107.19 53.8719 113.01 48.1869 119.849ZM63.5135 99.3988C59.064 94.7556 57.043 88.2974 57.9683 81.6783C59.2637 72.411 58.7858 64.3397 58.5287 60.0033C58.4926 59.3965 58.4605 58.8647 58.4421 58.4454C60.5374 56.5874 70.2471 51.3851 77.1717 52.9717C80.3312 53.6951 82.2567 55.8469 83.0571 59.5479C87.1999 78.709 83.6053 86.6951 80.7171 93.1131C80.1219 94.4351 79.5594 95.6849 79.0794 96.9776L78.7071 97.9772C77.7649 100.504 76.888 102.854 76.3446 105.084C71.6142 105.071 67.0126 103.05 63.5135 99.3981V99.3988ZM64.2396 125.24C62.8583 124.895 61.616 124.295 60.8871 123.798C61.496 123.512 62.5794 123.122 64.4585 122.735C73.5519 120.863 74.9565 119.542 78.0233 115.648C78.7262 114.755 79.5233 113.743 80.6271 112.51L80.6285 112.509C82.2724 110.668 83.0244 110.98 84.388 111.546C85.4933 112.003 86.5699 113.388 87.0062 114.913C87.2128 115.633 87.4446 116.999 86.6858 118.063C80.2794 127.033 70.944 126.918 64.2396 125.24ZM111.83 169.525C100.705 171.909 96.7665 166.233 94.1708 159.744C92.4956 155.555 91.6719 136.664 92.2562 115.803C92.2637 115.525 92.2242 115.257 92.1478 115.005C92.0795 114.507 91.9756 114.014 91.8369 113.531C90.9683 110.495 88.8512 107.956 86.3115 106.904C85.3024 106.486 83.4505 105.719 81.2251 106.288C81.6996 104.332 82.5226 102.124 83.4151 99.7328L83.7894 98.7272C84.2108 97.5933 84.7399 96.4185 85.299 95.1749C88.3215 88.4604 92.4608 79.2633 87.9683 58.4863C86.2855 50.704 80.666 46.9035 72.1474 47.7865C67.0405 48.3149 62.368 50.3754 60.0376 51.5569C59.5365 51.8106 59.0783 52.056 58.6501 52.2947C59.3005 44.4538 61.7578 29.8001 70.9501 20.5288C76.738 14.6924 84.446 11.8097 93.8374 11.9651C112.342 12.2679 124.208 21.7642 130.905 29.6781C136.676 36.497 139.801 43.3663 141.048 47.0713C131.669 46.1174 125.291 47.9685 122.058 52.5913C115.024 62.6467 125.906 82.1631 131.136 91.5429C132.096 93.2617 132.923 94.7474 133.184 95.3788C134.887 99.5065 137.092 102.262 138.702 104.274C139.195 104.89 139.674 105.488 140.038 106.01C137.198 106.829 132.096 108.721 132.561 118.179C132.186 122.924 129.519 145.142 128.164 152.992C126.376 163.362 122.56 167.225 111.83 169.526V169.525ZM158.264 116.387C155.36 117.735 150.499 118.746 145.882 118.964C140.782 119.202 138.186 118.392 137.575 117.894C137.288 112 139.482 111.384 141.803 110.733C142.168 110.63 142.524 110.53 142.868 110.41C143.081 110.584 143.315 110.756 143.571 110.926C147.67 113.631 154.981 113.923 165.304 111.792L165.417 111.77C164.024 113.071 161.642 114.818 158.264 116.387Z" fill="white"/>
</svg>
