<svg width="180" height="180" viewBox="0 0 180 180" fill="none" xmlns="http://www.w3.org/2000/svg">
<path d="M90 103.916C97.7665 103.916 104.062 97.62 104.062 89.8535C104.062 82.087 97.7665 75.791 90 75.791C82.2335 75.791 75.9375 82.087 75.9375 89.8535C75.9375 97.62 82.2335 103.916 90 103.916Z" fill="#007ACC"/>
<path d="M90 122.096C73.0976 122.505 56.2376 120.227 40.05 115.346C32.5722 112.976 25.5979 109.242 19.4794 104.332C17.1446 102.655 15.2003 100.493 13.7798 97.9939C12.3593 95.4947 11.4963 92.7178 11.25 89.8537C11.25 80.5555 21.465 71.443 38.5762 65.4805C55.1966 60.1973 72.5621 57.6367 90 57.898C107.205 57.6577 124.338 60.1719 140.749 65.3455C147.95 67.6414 154.688 71.1951 160.65 75.8418C162.945 77.4406 164.86 79.5246 166.26 81.946C167.66 84.3675 168.51 87.0671 168.75 89.8537C168.75 99.5174 157.331 109.311 138.938 115.397C123.063 120.118 106.559 122.378 90 122.096ZM90 64.6255C73.3169 64.4025 56.7046 66.8368 40.7869 71.8368C25.0369 77.3324 17.9775 84.8474 17.9775 89.8368C17.9775 95.0568 25.5656 103.264 42.2269 108.962C57.7129 113.607 73.8372 115.77 90 115.369C105.842 115.652 121.635 113.508 136.828 109.012C154.125 103.281 162 95.0624 162 89.8537C161.716 88.0662 161.065 86.357 160.087 84.834C159.109 83.3111 157.826 82.0075 156.319 81.0055C150.985 76.8832 144.966 73.7338 138.538 71.7018C122.839 66.7729 106.453 64.3841 90 64.6255Z" fill="#007ACC"/>
<path d="M58.05 159.992C55.4259 160.052 52.8328 159.415 50.535 158.147C42.48 153.5 39.69 140.102 43.0706 122.299C46.798 105.261 53.2564 88.9383 62.1956 73.9629C70.581 58.9391 81.316 45.3537 93.9938 33.7217C99.5803 28.6294 106.025 24.5672 113.029 21.7235C115.562 20.5363 118.325 19.9209 121.123 19.9209C123.921 19.9209 126.684 20.5363 129.218 21.7235C137.593 26.5498 140.366 41.3323 136.457 60.3054C132.614 76.4186 126.324 91.8473 117.804 106.054C109.714 120.9 99.3171 134.367 87.0019 145.952C81.2125 151.244 74.4938 155.418 67.185 158.265C64.259 159.351 61.1705 159.935 58.05 159.992ZM68.0231 77.3042C59.4962 91.6441 53.3062 107.25 49.6856 123.536C46.575 139.933 49.5619 149.794 53.9044 152.302C58.4044 154.907 69.3281 152.437 82.5919 140.85C94.3483 129.751 104.272 116.86 111.994 102.656C120.155 89.0746 126.19 74.3237 129.887 58.916C133.566 41.0567 130.388 30.1217 125.876 27.5229C124.185 26.8751 122.379 26.5851 120.57 26.6712C118.761 26.7574 116.99 27.2179 115.369 28.0235C109.134 30.5961 103.403 34.2483 98.4375 38.8123C86.325 49.9542 76.0708 62.9601 68.0625 77.3379L68.0231 77.3042Z" fill="#007ACC"/>
<path d="M121.933 160.065C114.311 160.065 104.631 155.453 94.5505 146.784C81.6507 135.047 70.7341 121.3 62.2236 106.076C53.3965 91.3071 46.9893 75.2207 43.2449 58.427C41.621 51.0385 41.3201 43.4206 42.3561 35.927C42.5957 33.1472 43.4421 30.4537 44.8358 28.0366C46.2295 25.6195 48.1365 23.5376 50.4224 21.9376C58.7868 17.0945 72.9786 22.0726 87.463 34.9314C99.5038 46.3062 109.729 59.4603 117.782 73.9351C126.603 88.3596 133.078 104.094 136.963 120.549C138.657 128.209 138.918 136.116 137.734 143.871C137.452 146.731 136.555 149.496 135.104 151.976C133.654 154.457 131.684 156.595 129.33 158.243C127.07 159.495 124.517 160.124 121.933 160.065ZM68.0455 102.69C76.2098 117.239 86.6378 130.395 98.938 141.666C111.589 152.55 121.624 154.89 125.938 152.353C130.438 149.738 133.757 139.061 130.337 121.787C126.59 106.076 120.38 91.0571 111.937 77.2876C104.253 63.4339 94.4928 50.8381 82.9968 39.9376C69.3618 27.8326 58.303 25.127 53.7974 27.737C52.3931 28.8782 51.2406 30.2982 50.4129 31.9073C49.5851 33.5164 49.0999 35.2797 48.988 37.0857C48.0937 43.7687 48.385 50.5571 49.8486 57.1389C53.4503 73.199 59.5953 88.5805 68.0511 102.701L68.0455 102.69Z" fill="#007ACC"/>
</svg>
